<?xml version="1.0" standalone="no"?>
<!DOCTYPE svg PUBLIC "-//W3C//DTD SVG 20010904//EN"
 "http://www.w3.org/TR/2001/REC-SVG-20010904/DTD/svg10.dtd">
<svg version="1.0" xmlns="http://www.w3.org/2000/svg"
 width="256.000000pt" height="256.000000pt" viewBox="0 0 256.000000 256.000000"
 preserveAspectRatio="xMidYMid meet">

<g transform="translate(0.000000,256.000000) scale(0.100000,-0.100000)"
fill="#000000" stroke="none">
<path d="M369 2183 c-21 -24 -21 -1782 0 -1806 12 -16 88 -17 912 -17 626 0
900 3 904 11 9 14 9 1804 1 1818 -5 8 -259 11 -905 11 -824 0 -900 -1 -912
-17z m303 -100 c-35 -45 -72 -79 -72 -68 0 9 69 96 84 107 22 15 17 -3 -12
-39z m228 41 c0 -20 -236 -264 -255 -264 -7 0 78 98 179 207 53 57 76 74 76
57z m90 -2 c0 -14 -102 -123 -164 -176 -31 -26 -56 -45 -56 -41 0 3 28 36 63
74 34 37 78 86 98 109 34 39 59 53 59 34z m-250 -5 c0 -2 -14 -16 -32 -33
l-32 -29 25 32 c20 27 39 41 39 30z m71 -14 c-9 -19 -41 -48 -76 -73 -11 -8 2
9 30 38 53 56 61 62 46 35z m359 10 c0 -16 -89 -119 -178 -204 -103 -100 -238
-217 -211 -184 97 121 137 167 238 271 99 104 151 144 151 117z m170 1 c0 -11
-183 -194 -225 -226 -22 -16 -6 3 36 44 41 40 97 99 123 131 44 51 66 69 66
51z m50 -9 c-7 -8 -17 -15 -22 -15 -6 0 -5 7 2 15 7 8 17 15 22 15 6 0 5 -7
-2 -15z m-16 -67 c-114 -110 -129 -113 -24 -5 46 48 89 87 97 87 7 0 -26 -37
-73 -82z m195 56 c-13 -14 -25 -20 -27 -14 -5 15 17 40 36 40 12 0 10 -6 -9
-26z m132 7 c-21 -39 -114 -131 -132 -131 -10 0 -19 3 -19 6 0 17 124 144 141
144 16 0 18 -3 10 -19z m109 -17 c-18 -21 -24 -10 -9 18 8 14 14 18 17 10 2
-7 -2 -19 -8 -28z m74 -5 c-9 -19 -52 -72 -94 -119 -43 -47 -94 -103 -114
-125 -31 -35 -35 -37 -36 -18 0 11 15 39 34 61 55 67 220 241 224 237 2 -2 -4
-18 -14 -36z m56 37 c0 -3 -4 -8 -10 -11 -5 -3 -10 -1 -10 4 0 6 5 11 10 11 6
0 10 -2 10 -4z m117 -13 c-9 -9 -19 -14 -23 -11 -10 10 6 28 24 28 15 0 15 -1
-1 -17z m-1488 -45 c-57 -70 -121 -138 -131 -138 -23 0 0 31 80 106 48 46 89
84 90 84 2 0 -15 -24 -39 -52z m401 -51 c-100 -98 -89 -77 19 35 36 37 67 65
70 62 3 -2 -37 -46 -89 -97z m525 73 c-16 -16 -34 -30 -39 -30 -12 1 49 60 61
60 4 0 -6 -13 -22 -30z m252 -33 c-49 -70 -103 -122 -112 -107 -4 6 3 24 16
38 56 65 123 131 128 127 2 -3 -12 -29 -32 -58z m373 55 c0 -11 -22 -32 -32
-32 -5 0 -4 9 2 20 11 20 30 28 30 12z m-66 -34 c-20 -35 -47 -69 -51 -65 -7
8 25 65 39 70 19 8 20 8 12 -5z m40 -64 c-30 -25 -64 -37 -64 -24 0 5 19 24
43 44 34 29 43 32 46 19 2 -10 -9 -27 -25 -39z m-1564 -48 c-45 -62 -100 -114
-100 -94 0 14 113 138 126 138 3 0 -9 -20 -26 -44z m1411 7 c-26 -37 -141
-150 -141 -139 0 8 150 166 157 166 3 0 -5 -12 -16 -27z m131 -20 c-21 -30
-172 -162 -200 -176 -10 -5 32 39 92 97 107 104 147 133 108 79z m-1451 -11
c-11 -16 -28 -35 -38 -43 -17 -13 -17 -13 -3 6 20 28 53 65 57 65 3 0 -5 -13
-16 -28z m629 25 c0 -2 -15 -16 -32 -33 l-33 -29 29 33 c28 30 36 37 36 29z
m288 -33 l52 -7 0 -113 0 -114 -105 0 c-127 0 -125 2 -125 -139 l0 -101 115 0
115 0 0 -125 0 -125 -114 0 -114 0 -7 -72 c-4 -40 -5 -173 -3 -295 l3 -221
-35 -6 c-46 -8 -115 -7 -162 0 l-38 7 0 298 0 299 -80 0 -80 0 0 125 0 125 84
0 84 0 4 128 c5 148 25 209 89 267 62 56 189 84 317 69z m301 -159 c-90 -91
-165 -165 -167 -165 -7 0 16 30 87 114 72 84 215 216 235 216 5 0 -64 -74
-155 -165z m-1262 58 c-89 -104 -134 -149 -143 -140 -4 3 42 58 101 122 59 63
110 113 113 111 2 -3 -30 -45 -71 -93z m185 20 c-73 -84 -258 -274 -230 -237
90 122 251 294 274 294 3 0 -17 -26 -44 -57z m987 -48 c-79 -90 -109 -116
-109 -94 0 10 175 189 185 189 4 0 -31 -43 -76 -95z m366 65 c-3 -5 -11 -10
-16 -10 -6 0 -7 5 -4 10 3 6 11 10 16 10 6 0 7 -4 4 -10z m-1167 -42 c-25 -33
-276 -247 -291 -248 -4 0 63 63 150 140 86 77 159 140 161 140 3 0 -7 -15 -20
-32z m-473 -18 c-21 -22 -41 -37 -44 -35 -4 5 68 74 79 75 2 0 -13 -18 -35
-40z m215 36 c0 -2 -8 -10 -17 -17 -16 -13 -17 -12 -4 4 13 16 21 21 21 13z
m1261 -45 c-41 -57 -312 -310 -326 -305 -24 10 47 86 200 215 77 65 141 118
143 118 2 1 -6 -12 -17 -28z m14 -126 c-82 -80 -154 -145 -158 -145 -11 0 128
162 185 216 42 41 93 73 113 73 6 0 -57 -65 -140 -144z m-915 131 c0 -2 -19
-19 -42 -36 l-43 -32 37 36 c35 33 48 42 48 32z m25 -53 c-40 -54 -84 -100
-130 -136 -34 -26 -37 -27 -20 -7 24 31 168 180 173 180 3 0 -8 -17 -23 -37z
m-322 -18 c-17 -29 -135 -155 -156 -166 l-22 -12 20 24 c24 30 158 169 163
169 2 0 -1 -7 -5 -15z m167 1 c0 -2 -8 -10 -17 -17 -16 -13 -17 -12 -4 4 13
16 21 21 21 13z m768 -53 c-8 -10 -43 -52 -78 -93 -71 -84 -107 -111 -46 -34
42 53 127 144 135 144 2 0 -3 -8 -11 -17z m395 -28 c-17 -14 -77 -78 -134
-142 -176 -202 -309 -331 -309 -301 0 32 97 140 232 260 79 70 163 147 187
172 25 25 47 43 50 40 3 -3 -9 -16 -26 -29z m-1542 8 c-5 -10 -31 -38 -57 -63
-54 -50 -41 -28 20 38 44 46 52 51 37 25z m309 -22 c0 -14 -145 -165 -193
-203 -38 -29 -36 -26 17 32 85 93 168 180 173 180 1 0 3 -4 3 -9z m230 -10 c0
-21 -103 -115 -120 -109 -9 3 103 128 115 128 3 0 5 -9 5 -19z m-190 -5 c0 -2
-8 -10 -17 -17 -16 -13 -17 -12 -4 4 13 16 21 21 21 13z m-130 -20 c0 -1 -44
-41 -97 -87 -54 -46 -127 -110 -163 -143 l-65 -60 50 53 c45 48 262 241 271
241 2 0 4 -2 4 -4z m750 -10 c0 -2 -8 -10 -17 -17 -16 -13 -17 -12 -4 4 13 16
21 21 21 13z m599 -30 c-2 -2 -15 -7 -29 -10 l-25 -7 25 21 c15 14 26 18 28
10 2 -6 2 -13 1 -14z m-581 -25 c-13 -17 -29 -30 -37 -30 -9 -1 -4 10 14 29
37 39 54 39 23 1z m-483 -1 c-10 -11 -23 -20 -28 -20 -6 0 -2 9 8 20 10 11 23
20 28 20 6 0 2 -9 -8 -20z m-222 -23 c-28 -34 -123 -121 -123 -112 0 8 130
133 138 135 2 0 -5 -10 -15 -23z m1287 8 c0 -8 -6 -15 -14 -15 -29 0 -140 -96
-223 -194 -108 -126 -165 -186 -176 -186 -10 0 102 139 201 249 67 75 173 161
198 161 8 0 14 -7 14 -15z m-1277 -78 c-51 -64 -142 -161 -187 -199 l-51 -43
35 45 c39 50 205 220 215 220 4 0 -2 -10 -12 -23z m1187 -33 c-30 -30 -77 -74
-105 -97 l-50 -42 33 42 c39 50 151 153 166 153 6 0 -14 -25 -44 -56z m-1171
-56 c-35 -33 -86 -78 -114 -101 l-50 -42 60 69 c33 38 82 88 110 112 75 66 70
30 -6 -38z m1250 15 c-46 -60 -380 -382 -363 -351 29 53 341 368 365 368 8 0
7 -6 -2 -17z m-1605 -97 c-39 -44 -64 -57 -63 -33 0 9 79 71 98 76 2 1 -14
-19 -35 -43z m1616 -19 c0 -16 -11 -28 -36 -42 -20 -11 -88 -74 -150 -140 -63
-66 -114 -117 -114 -113 0 15 108 137 200 225 52 51 96 92 98 93 1 0 2 -10 2
-23z m-1361 -44 c-84 -97 -235 -254 -256 -269 -53 -34 0 29 139 167 139 138
180 173 117 102z m161 14 c0 -8 -46 -54 -101 -102 -117 -102 -116 -83 2 34 81
81 99 93 99 68z m-420 0 c0 -2 -9 -12 -20 -22 -24 -21 -27 -14 -4 9 15 15 24
20 24 13z m34 -68 c-16 -17 -38 -35 -49 -41 -11 -6 0 10 24 36 25 25 47 43 50
41 2 -3 -9 -19 -25 -36z m1140 19 c-5 -7 -49 -62 -100 -123 -96 -114 -164
-177 -164 -152 0 24 87 127 177 207 92 83 99 88 87 68z m361 -83 c-49 -47 -94
-85 -100 -85 -5 0 15 22 45 48 30 26 73 64 95 84 22 21 42 37 45 37 3 0 -35
-38 -85 -84z m-964 46 c-6 -10 -31 -40 -57 -67 l-46 -49 38 50 c63 84 87 108
65 66z m477 -13 c-27 -39 -120 -129 -126 -123 -8 8 119 155 134 155 12 0 10
-7 -8 -32z m-537 -120 c-104 -126 -124 -146 -59 -58 56 77 104 130 115 130 2
0 -23 -33 -56 -72z m-559 40 c-7 -7 -12 -8 -12 -2 0 14 12 26 19 19 2 -3 -1
-11 -7 -17z m317 -14 c-33 -40 -281 -256 -264 -230 21 32 267 257 274 250 2
-2 -2 -11 -10 -20z m172 9 c-14 -27 -282 -295 -321 -323 -35 -24 -35 -24 8 26
39 44 313 313 320 314 1 0 -2 -8 -7 -17z m139 -3 c0 -13 -81 -102 -88 -96 -4
4 77 106 85 106 1 0 3 -5 3 -10z m614 -45 c-20 -25 -39 -45 -42 -45 -5 0 8 17
52 68 35 40 28 23 -10 -23z m-1229 15 c-10 -11 -21 -18 -23 -15 -3 3 3 12 14
20 27 20 30 18 9 -5z m1145 -25 c-18 -19 -36 -32 -39 -30 -4 5 58 64 68 65 3
0 -10 -16 -29 -35z m271 -75 c-94 -89 -129 -111 -76 -48 34 40 146 137 160
137 6 0 -32 -40 -84 -89z m-961 35 c0 -14 -154 -187 -201 -225 -61 -50 -56
-43 95 123 92 100 106 114 106 102z m1050 -1 c0 -10 -104 -115 -125 -127 -25
-13 31 53 84 100 38 34 41 36 41 27z m5 -66 c-31 -40 -77 -91 -103 -113 l-47
-40 25 35 c25 35 169 190 177 190 2 0 -21 -33 -52 -72z m-263 15 c-34 -43 -90
-96 -77 -73 15 27 98 120 103 115 2 -2 -9 -21 -26 -42z m332 -64 c-89 -90
-117 -104 -52 -27 63 76 122 130 127 117 2 -6 -32 -47 -75 -90z m-1375 -10
c-41 -44 -90 -100 -109 -124 -33 -42 -58 -60 -67 -51 -4 4 236 256 244 256 3
0 -28 -36 -68 -81z m786 31 c-21 -22 -41 -37 -44 -34 -6 6 66 74 78 74 3 0
-12 -18 -34 -40z m299 15 c-9 -14 -19 -23 -22 -20 -5 4 26 45 35 45 2 0 -4
-11 -13 -25z m-1214 12 c0 -2 -12 -14 -27 -28 l-28 -24 24 28 c23 25 31 32 31
24z m380 -32 c-18 -19 -36 -32 -39 -30 -4 5 58 64 68 65 3 0 -10 -16 -29 -35z
m544 -64 c-38 -51 -54 -62 -54 -39 0 13 81 100 88 94 2 -3 -13 -27 -34 -55z
m-864 24 c-7 -9 -27 -25 -44 -37 -28 -19 -27 -17 8 20 22 23 42 40 44 37 3 -2
-1 -12 -8 -20z m480 21 c0 -2 -8 -10 -17 -17 -16 -13 -17 -12 -4 4 13 16 21
21 21 13z m980 -76 c-35 -38 -65 -70 -67 -70 -2 0 24 34 58 75 34 42 64 73 67
71 2 -3 -24 -37 -58 -76z m-300 13 c-32 -42 -133 -143 -138 -138 -10 10 136
165 156 165 2 0 -6 -12 -18 -27z m-255 -53 c-32 -33 -61 -57 -64 -54 -6 6 100
114 113 114 6 0 -16 -27 -49 -60z m92 30 c-18 -25 -132 -130 -142 -130 -11 0
63 80 108 118 45 37 54 40 34 12z m63 6 c0 -2 -8 -10 -17 -17 -16 -13 -17 -12
-4 4 13 16 21 21 21 13z m215 -56 c-47 -62 -75 -88 -57 -54 12 22 91 114 98
114 3 0 -15 -27 -41 -60z m-1140 -60 c-43 -44 -100 -93 -125 -110 -29 -21 -5
7 70 79 132 127 174 151 55 31z m895 76 c0 -2 -8 -10 -17 -17 -16 -13 -17 -12
-4 4 13 16 21 21 21 13z m129 -25 c-28 -39 -179 -175 -179 -163 0 9 187 192
196 192 3 0 -5 -13 -17 -29z m-1182 -47 c-60 -56 -90 -71 -63 -31 18 26 109
97 116 90 3 -3 -21 -29 -53 -59z m354 -69 c-56 -63 -109 -115 -117 -115 -9 0
-12 5 -8 13 10 17 218 223 223 220 2 -1 -42 -54 -98 -118z m1099 33 c-33 -40
-68 -77 -78 -82 -21 -12 61 89 103 126 16 15 31 27 33 28 2 0 -24 -33 -58 -72z
m-1570 47 c-7 -9 -15 -13 -17 -11 -7 7 7 26 19 26 6 0 6 -6 -2 -15z m380 -8
c0 -1 -26 -27 -57 -57 l-58 -55 55 58 c50 53 60 62 60 54z m883 -71 c-66 -72
-121 -121 -129 -114 -6 7 165 178 178 178 5 0 -17 -29 -49 -64z m-1245 19
c-10 -21 -38 -36 -38 -19 0 16 23 44 35 44 12 0 12 -5 3 -25z m948 -60 c-59
-66 -74 -79 -57 -47 15 29 103 123 109 118 3 -3 -21 -35 -52 -71z m425 48
c-27 -39 -121 -129 -121 -118 0 9 130 145 138 145 2 0 -6 -12 -17 -27z m179
-38 c-30 -30 -56 -52 -59 -50 -3 3 19 30 49 60 30 30 56 52 59 50 3 -3 -19
-30 -49 -60z m-989 -8 l-54 -52 48 57 c27 32 51 55 54 53 3 -3 -19 -29 -48
-58z m-531 18 c-24 -26 -40 -32 -40 -16 0 6 12 16 28 24 38 21 38 20 12 -8z
m571 -35 c-83 -78 -103 -78 -26 0 33 33 66 60 75 60 8 -1 -13 -27 -49 -60z
m94 -2 c-28 -29 -51 -55 -52 -57 -2 -2 -5 -2 -8 1 -8 7 84 108 98 108 6 0 -11
-24 -38 -52z m526 -31 l-34 -32 29 37 c15 20 30 35 33 32 3 -2 -10 -19 -28
-37z m-1181 29 c0 -2 -7 -7 -16 -10 -8 -3 -12 -2 -9 4 6 10 25 14 25 6z m825
-26 c-9 -16 -23 -30 -32 -30 -13 0 -10 7 12 30 16 17 30 30 32 30 2 0 -3 -13
-12 -30z m155 -15 c-7 -8 -17 -15 -23 -15 -5 0 -2 9 8 20 21 23 35 19 15 -5z
m540 22 c0 -2 -10 -12 -22 -23 l-23 -19 19 23 c18 21 26 27 26 19z m-1288 -29
c-7 -7 -12 -8 -12 -2 0 14 12 26 19 19 2 -3 -1 -11 -7 -17z m438 18 c0 -2 -8
-10 -17 -17 -16 -13 -17 -12 -4 4 13 16 21 21 21 13z m-685 -16 c-3 -5 -16
-10 -28 -10 -18 0 -19 2 -7 10 20 13 43 13 35 0z"/>
</g>
</svg>
