<?xml version="1.0" standalone="no"?>
<!DOCTYPE svg PUBLIC "-//W3C//DTD SVG 20010904//EN"
 "http://www.w3.org/TR/2001/REC-SVG-20010904/DTD/svg10.dtd">
<svg version="1.0" xmlns="http://www.w3.org/2000/svg"
 width="2000.000000pt" height="2000.000000pt" viewBox="0 0 2000.000000 2000.000000"
 preserveAspectRatio="xMidYMid meet">

<g transform="translate(0.000000,2000.000000) scale(0.100000,-0.100000)"
fill="#000000" stroke="none">
<path d="M8631 18408 c-45 -22 -81 -68 -81 -104 0 -57 44 -87 615 -414 559
-320 738 -428 1005 -605 218 -145 391 -279 423 -329 l18 -27 -43 22 c-86 43
-345 204 -770 475 -823 527 -1096 693 -1365 830 -249 127 -384 161 -460 114
-34 -21 -53 -66 -45 -110 15 -74 190 -193 896 -604 279 -163 587 -347 685
-408 304 -192 471 -320 471 -363 0 -29 -116 -16 -213 25 -69 29 -81 38 -114
87 -90 137 -342 304 -934 623 -255 138 -274 150 -574 374 -433 325 -496 366
-560 366 -80 0 -114 -94 -64 -177 55 -89 239 -213 655 -440 148 -81 251 -146
385 -245 378 -277 690 -488 873 -588 43 -23 75 -45 72 -48 -3 -2 -34 1 -68 8
-236 46 -659 305 -1553 950 -533 385 -725 508 -816 525 -62 11 -119 -42 -119
-111 0 -29 -6 -30 -45 -3 -61 41 -167 90 -210 96 -41 5 -47 3 -79 -29 -24 -24
-37 -48 -42 -76 l-6 -41 -79 39 c-170 86 -322 116 -395 77 -56 -29 -84 -72
-84 -128 0 -27 -2 -49 -4 -49 -3 0 -33 17 -68 37 -173 102 -272 109 -308 23
-7 -16 -15 -30 -18 -30 -2 0 -36 11 -74 25 -96 35 -141 33 -180 -5 -26 -26
-29 -36 -26 -73 3 -23 8 -49 12 -58 5 -11 -12 -6 -61 17 -95 45 -156 64 -209
64 -39 0 -51 -5 -80 -34 -26 -26 -34 -42 -34 -70 0 -20 -2 -36 -4 -36 -2 0
-30 12 -62 26 -36 16 -85 28 -126 32 -57 4 -71 2 -97 -17 -18 -13 -35 -38 -42
-61 -18 -59 9 -119 90 -204 l66 -69 -75 42 c-104 59 -247 127 -295 140 -99 27
-165 4 -184 -65 -23 -83 20 -137 229 -287 14 -10 -18 5 -70 32 -129 67 -275
128 -353 147 -81 20 -130 13 -169 -27 -26 -25 -29 -35 -26 -74 3 -37 0 -44
-12 -39 -8 3 -40 8 -71 11 -84 8 -139 -27 -139 -89 0 -22 -4 -23 -62 -23 -71
-1 -110 -20 -134 -66 -19 -38 -18 -72 5 -117 21 -41 121 -140 194 -192 26 -18
47 -34 47 -36 0 -1 -57 27 -126 62 -144 73 -235 104 -306 104 -44 0 -54 -4
-84 -34 -42 -42 -45 -82 -8 -125 36 -43 204 -153 566 -371 168 -102 305 -186
304 -188 -2 -1 -115 57 -252 130 -323 171 -591 301 -687 333 -102 34 -141 33
-178 -4 -50 -51 -34 -112 48 -177 27 -21 53 -42 58 -47 6 -4 -17 4 -50 19
-115 51 -225 41 -254 -22 -24 -54 -4 -91 83 -151 28 -19 42 -32 31 -28 -102
36 -134 45 -169 45 -51 0 -81 -20 -96 -64 -14 -43 -1 -78 48 -130 39 -40 169
-132 264 -185 96 -55 65 -44 -56 18 -131 67 -208 98 -281 112 -62 12 -97 5
-135 -28 -64 -54 -30 -132 95 -219 30 -20 55 -39 55 -40 0 -2 -37 15 -83 37
-115 55 -148 59 -181 24 -19 -20 -26 -39 -26 -67 0 -51 11 -71 74 -137 31 -32
43 -51 31 -47 -94 34 -167 30 -215 -10 -24 -20 -30 -34 -30 -64 0 -65 65 -115
550 -422 322 -204 480 -307 480 -312 0 -8 -92 32 -595 256 -406 182 -506 212
-563 172 -33 -23 -46 -61 -31 -96 16 -39 90 -91 519 -368 206 -133 380 -246
385 -252 6 -6 -33 12 -85 39 -546 289 -781 406 -837 418 -45 9 -83 -28 -83
-81 0 -31 8 -45 48 -83 26 -26 61 -57 77 -70 l30 -22 -31 15 c-96 46 -159 41
-194 -16 -37 -61 -22 -113 53 -195 l42 -46 -32 7 c-43 10 -97 -9 -123 -41 -45
-57 -11 -149 85 -227 l55 -45 -55 6 c-98 10 -155 -34 -155 -120 0 -59 39 -112
140 -189 97 -73 209 -136 575 -326 419 -217 684 -367 671 -379 -12 -13 -330
134 -811 374 -518 259 -551 271 -594 217 -37 -47 -28 -81 35 -141 l56 -53 -31
0 c-22 0 -43 -11 -69 -34 -33 -31 -37 -40 -37 -84 0 -65 36 -117 135 -195 103
-81 104 -82 30 -48 -95 45 -149 42 -176 -11 -23 -44 -11 -75 54 -140 l56 -58
-32 0 c-22 0 -43 -10 -68 -33 -69 -63 -54 -147 43 -238 99 -93 247 -181 718
-429 369 -194 582 -316 571 -327 -8 -8 -271 102 -847 355 -457 200 -498 211
-534 141 -19 -36 -19 -92 -1 -127 18 -35 94 -106 173 -162 35 -24 61 -45 60
-46 -2 -2 -25 3 -52 11 -63 19 -99 19 -142 -2 -69 -32 -91 -108 -54 -182 28
-54 135 -150 255 -228 146 -95 146 -95 101 -77 -199 80 -300 83 -360 13 -46
-56 -32 -112 53 -201 73 -77 167 -149 378 -288 93 -61 170 -113 173 -115 2 -2
-61 28 -141 68 -173 88 -271 122 -353 122 -93 -1 -145 -47 -145 -132 0 -71 72
-152 223 -254 49 -32 87 -59 85 -59 -2 0 -28 7 -58 15 -139 37 -250 -1 -250
-87 0 -63 75 -118 555 -408 338 -204 478 -292 630 -393 230 -153 165 -119
-180 92 -721 441 -824 499 -909 508 -38 5 -48 2 -70 -20 -52 -52 -46 -125 16
-193 23 -24 39 -46 37 -47 -2 -2 -17 -11 -32 -21 -16 -10 -34 -31 -42 -48 -25
-62 7 -111 142 -215 40 -31 73 -57 73 -59 0 -2 -12 1 -26 6 -85 33 -194 -16
-196 -88 -2 -73 43 -107 687 -522 323 -208 564 -367 580 -382 12 -12 -330 160
-650 327 -467 243 -578 272 -615 161 -15 -47 5 -92 66 -152 95 -92 251 -194
839 -549 171 -103 315 -192 320 -197 6 -6 -152 71 -350 170 -385 192 -529 258
-639 291 -128 39 -211 20 -236 -54 -16 -47 -7 -90 30 -148 16 -26 25 -47 20
-47 -19 0 -50 -65 -50 -103 0 -22 7 -55 17 -74 39 -84 202 -223 431 -370 64
-41 119 -76 121 -79 3 -2 -49 21 -114 52 -150 70 -280 114 -340 114 -83 0
-127 -71 -95 -155 18 -47 103 -126 220 -204 117 -78 239 -149 725 -418 296
-164 418 -237 516 -310 55 -41 61 -48 41 -51 -34 -5 -226 77 -406 174 -88 48
-307 175 -486 282 -480 289 -524 309 -574 259 -19 -20 -26 -36 -26 -67 0 -48
35 -88 146 -165 94 -66 95 -68 40 -49 -129 44 -227 -47 -155 -145 47 -65 269
-219 954 -664 190 -123 298 -197 225 -154 -77 44 -191 117 -415 262 -430 278
-522 332 -621 361 -69 20 -116 7 -145 -40 -42 -70 -18 -137 83 -231 64 -59 68
-65 44 -65 -78 0 -133 -59 -123 -132 7 -49 44 -98 120 -156 l60 -47 -53 -5
c-89 -10 -135 -84 -96 -158 28 -53 137 -139 288 -226 77 -44 55 -39 -40 11
-144 74 -215 66 -243 -28 -33 -107 78 -235 371 -431 74 -50 137 -92 140 -95 2
-2 -30 12 -72 31 -170 78 -278 94 -339 53 -41 -28 -59 -60 -59 -110 0 -56 34
-112 118 -200 l75 -77 -34 0 c-69 0 -109 -54 -109 -148 0 -75 36 -150 121
-250 l61 -73 -20 -22 c-57 -61 -76 -164 -46 -254 18 -54 92 -179 123 -207 12
-11 21 -27 21 -37 0 -26 918 -733 1117 -861 140 -90 447 -327 437 -337 -2 -2
-15 4 -29 13 -14 9 -25 14 -25 12 0 -6 1797 -1396 1805 -1396 3 0 2 12 -1 26
-6 22 -4 25 7 19 8 -5 50 -32 94 -60 129 -83 289 -173 430 -242 341 -166 581
-186 696 -56 26 30 30 42 27 78 l-3 43 40 -25 c91 -57 285 -144 350 -158 126
-26 215 16 215 103 0 38 -11 61 -53 115 l-30 38 69 -44 c38 -24 114 -70 169
-102 55 -31 111 -68 126 -81 14 -13 37 -24 52 -24 14 0 49 -9 77 -20 210 -83
390 -35 390 103 0 150 -231 320 -1255 924 -679 401 -930 558 -1030 647 -34 30
-37 35 -19 36 57 1 243 -83 474 -215 263 -149 550 -332 1235 -789 363 -241
728 -482 810 -533 284 -178 406 -224 461 -172 31 29 47 85 35 125 -29 103
-100 173 -391 387 l-25 19 26 -15 c14 -8 109 -67 211 -131 476 -295 707 -416
792 -416 61 0 106 55 106 130 0 52 -19 96 -61 145 -39 45 -47 49 146 -78 174
-115 331 -195 396 -203 41 -6 50 -3 80 24 26 23 33 37 32 63 l-1 34 123 -61
c223 -111 352 -122 440 -40 l36 34 61 -24 c155 -60 247 -53 301 26 9 13 17 39
17 57 0 18 2 33 4 33 2 0 35 -19 72 -42 144 -87 240 -110 282 -65 30 32 44 77
37 116 -6 34 -6 34 17 19 155 -102 316 -167 370 -152 71 21 100 122 58 204
l-20 40 122 -81 c152 -101 236 -141 304 -147 49 -4 56 -2 84 26 16 17 30 40
30 51 0 20 3 20 69 -14 103 -51 181 -71 229 -57 79 24 112 101 74 174 l-20 37
21 -11 c12 -6 45 -26 74 -45 84 -53 229 -121 290 -134 46 -11 62 -10 96 2 53
18 82 58 81 109 -1 22 0 40 2 40 3 0 21 -11 42 -24 66 -42 159 -85 203 -95 51
-12 101 5 119 39 12 22 10 80 -4 112 -5 12 25 -1 87 -37 103 -61 189 -95 238
-95 21 0 40 10 60 30 l30 30 74 -25 c133 -45 224 -24 265 61 30 60 21 107 -36
184 l-43 59 51 -30 c184 -108 382 -189 465 -189 58 0 110 28 119 65 5 21 10
24 28 19 91 -30 165 -31 221 -4 50 24 75 65 75 123 l0 46 54 -24 c99 -44 162
-58 201 -45 57 19 80 82 51 139 -44 84 -194 184 -836 556 -284 165 -480 284
-480 292 0 2 15 -4 33 -15 99 -61 639 -374 797 -462 255 -142 527 -275 640
-312 164 -54 266 -43 306 33 77 151 -124 334 -771 701 -121 69 -311 176 -423
238 -111 62 -200 115 -198 117 6 7 152 -55 268 -113 220 -110 500 -274 1008
-588 342 -212 416 -241 466 -182 36 41 32 93 -10 149 l-34 45 74 -34 c92 -43
150 -52 192 -30 34 17 62 61 62 97 0 18 4 20 26 15 61 -16 136 23 150 78 23
94 -72 172 -631 511 -310 188 -465 285 -465 291 0 10 219 -92 705 -328 513
-250 617 -287 674 -240 31 25 41 71 26 117 -19 53 -73 105 -191 185 -97 65
-180 113 -651 376 -117 65 -210 120 -209 122 5 5 245 -105 617 -281 497 -236
602 -277 654 -257 63 24 71 126 15 204 -34 47 -139 139 -217 191 -24 15 -43
29 -43 31 0 2 49 -21 110 -51 130 -65 243 -105 299 -105 31 0 49 7 73 29 28
25 33 36 33 78 0 26 -4 58 -8 70 -8 21 -6 21 24 13 68 -20 119 21 119 95 0
111 -151 228 -675 525 -110 62 -204 117 -210 123 -14 14 9 1 300 -161 401
-224 528 -278 637 -270 53 4 65 9 89 36 33 37 38 85 14 132 l-16 30 37 0 c50
0 94 44 94 94 0 78 -84 140 -613 458 -174 105 -316 193 -314 195 2 1 80 -29
173 -68 488 -205 723 -289 803 -289 64 0 79 6 96 41 20 39 19 77 -5 122 -19
34 -19 37 -3 37 34 0 81 38 93 74 26 79 -33 164 -190 276 -41 29 -67 50 -57
47 107 -38 163 -49 229 -45 66 4 72 6 104 41 39 42 45 95 18 153 -19 39 -105
121 -181 172 -29 19 -53 36 -53 38 0 2 19 -4 42 -12 63 -22 149 -28 191 -15
73 24 106 96 73 159 -20 39 -100 111 -184 167 -40 27 -71 49 -70 51 2 1 30 -4
63 -12 118 -27 201 -10 230 47 57 110 -35 189 -610 519 -318 182 -615 359
-615 366 0 7 91 -41 319 -169 483 -270 703 -369 823 -371 61 -1 69 2 97 28 41
39 42 91 5 136 -39 46 -210 155 -619 395 -343 201 -669 408 -740 470 -29 26
-29 26 -5 20 48 -12 408 -193 680 -342 558 -305 650 -341 713 -277 52 52 45
128 -19 202 l-35 41 25 7 c51 12 85 79 66 128 -5 14 -28 46 -51 71 -39 42 -40
45 -18 45 47 1 89 53 89 110 0 36 -11 60 -52 113 -26 33 -28 37 -11 37 34 0
68 46 68 92 0 79 -94 145 -645 453 -311 174 -530 304 -654 389 -99 67 -195
150 -185 160 4 4 37 -5 75 -19 132 -50 295 -148 789 -478 405 -270 486 -317
546 -317 63 0 100 64 74 128 -31 74 -159 164 -615 435 -524 312 -820 500 -806
514 15 16 265 -120 596 -325 515 -318 621 -373 731 -374 77 0 119 43 119 124
0 36 -8 56 -41 101 -35 50 -38 57 -20 57 11 0 29 12 40 26 50 64 17 111 -174
251 l-30 22 57 -6 c31 -3 68 -3 81 1 41 10 86 54 93 91 18 100 -121 212 -646
520 -377 221 -554 327 -565 338 -15 15 138 -68 415 -226 572 -326 701 -378
771 -308 59 59 24 146 -103 251 -36 30 -65 56 -65 56 1 1 26 -3 54 -9 67 -14
113 5 133 54 12 28 11 36 -6 68 -26 48 -103 102 -562 391 -373 235 -676 432
-697 452 -17 18 71 -30 435 -232 512 -285 668 -360 748 -360 68 0 111 79 79
146 -35 73 -151 147 -682 439 -439 241 -691 394 -795 483 -117 100 125 -2 575
-243 589 -315 758 -380 856 -329 42 21 64 75 49 120 -16 48 -124 144 -292 259
-79 54 -147 102 -152 106 -5 5 35 -7 89 -27 103 -37 198 -51 258 -40 44 8 97
58 97 92 0 81 -46 114 -695 508 -312 190 -678 427 -691 447 -4 6 171 -78 387
-188 512 -258 674 -329 802 -347 156 -23 238 76 155 185 -73 95 -329 275 -963
679 -192 122 -354 226 -360 232 -13 12 94 -37 175 -80 133 -72 462 -270 690
-416 264 -168 368 -226 409 -226 38 0 71 37 71 81 0 60 -37 87 -400 292 -310
174 -664 383 -804 474 -202 132 -340 242 -323 260 12 11 228 -102 442 -232
671 -409 731 -443 856 -485 91 -31 162 -24 201 19 32 36 37 85 14 129 -34 64
-174 176 -348 277 -37 21 -66 40 -65 41 1 2 43 -13 92 -33 77 -32 102 -37 172
-37 77 -1 83 1 112 28 61 58 50 132 -31 221 -122 133 -330 270 -1045 684 -145
84 -263 155 -263 158 0 13 301 -155 615 -344 538 -324 628 -362 703 -298 63
53 48 109 -50 178 -35 25 -245 154 -468 288 -520 312 -785 481 -890 569 l-25
21 24 -12 c37 -18 175 -102 467 -284 280 -175 468 -284 578 -334 202 -91 324
-94 376 -8 54 87 -2 187 -180 321 -54 41 -137 98 -184 127 -48 29 -86 53 -86
55 0 1 37 -14 83 -35 197 -91 296 -97 340 -22 25 42 21 73 -16 127 -59 88
-233 219 -595 447 -265 166 -266 167 -152 106 175 -93 454 -228 517 -248 34
-12 87 -21 117 -21 48 0 57 3 80 31 50 59 47 131 -6 212 l-35 52 26 49 c65
125 25 278 -119 462 l-48 61 21 33 c49 78 17 168 -110 308 l-64 72 27 36 c36
47 38 110 5 177 -42 86 -227 252 -425 383 l-60 39 52 5 c125 13 166 144 86
272 -81 128 -329 320 -697 538 -122 73 -144 90 -112 90 29 0 75 30 90 60 47
92 -22 181 -244 312 -47 27 -166 94 -266 148 -260 141 -299 165 -329 205 -23
29 -33 35 -65 35 -49 0 -71 -24 -71 -78 0 -72 38 -100 400 -297 241 -131 395
-224 386 -232 -9 -10 -251 113 -403 205 -161 97 -454 286 -793 512 -284 189
-406 264 -514 316 -116 56 -172 62 -212 23 l-25 -26 -108 62 c-128 73 -291
139 -381 155 -77 14 -153 6 -198 -21 l-34 -19 -87 35 c-129 51 -205 68 -283
63 -79 -6 -145 -40 -177 -92 -42 -68 -22 -126 81 -233 186 -192 600 -464 1933
-1268 910 -549 983 -595 1090 -681 52 -42 95 -78 95 -79 0 -2 -84 48 -187 112
-396 243 -934 554 -1709 989 -411 230 -484 275 -699 429 -843 603 -1144 795
-1251 795 -35 0 -51 -6 -71 -26 l-26 -26 -69 32 c-75 35 -158 60 -199 60 -14
0 -48 -11 -74 -25 l-49 -24 -105 36 c-205 70 -340 50 -387 -56 l-17 -39 -86
43 c-89 45 -178 75 -218 75 -58 0 -113 -56 -113 -115 0 -30 21 -74 59 -125
l26 -35 -30 20 c-81 53 -248 151 -316 185 -107 54 -189 80 -255 80 -50 0 -59
-3 -90 -34 -19 -19 -34 -43 -34 -55 0 -12 -2 -21 -5 -21 -3 0 -40 17 -83 39
-192 96 -314 99 -346 9 -32 -91 51 -155 829 -633 524 -323 709 -439 905 -573
148 -100 320 -228 320 -238 0 -10 -179 87 -364 198 -110 66 -411 256 -670 422
-845 543 -1048 667 -1291 787 -235 116 -341 135 -405 74 -51 -49 -45 -111 19
-193 33 -41 115 -112 267 -230 16 -12 -72 44 -196 126 -381 252 -506 321 -576
322 -24 0 -40 -9 -63 -35 -28 -33 -36 -60 -31 -108 1 -16 -6 -14 -52 13 -95
57 -252 128 -314 144 -86 22 -150 20 -203 -6z m263 -172 c89 -40 416 -238 416
-253 0 -3 -15 4 -32 15 -18 11 -118 68 -223 127 -194 110 -235 135 -223 135 4
0 32 -11 62 -24z m3379 4 c122 -38 173 -66 205 -112 115 -166 421 -374 1227
-835 187 -107 376 -222 420 -256 670 -510 906 -679 963 -692 16 -3 83 -50 148
-103 596 -488 973 -789 1311 -1044 126 -94 235 -177 243 -185 8 -8 -27 5 -79
28 -141 62 -207 65 -236 9 -28 -55 -20 -79 48 -145 78 -76 296 -221 807 -535
364 -224 760 -480 820 -530 14 -12 -20 1 -75 28 -100 50 -213 114 -635 362
-391 229 -596 320 -694 307 -55 -8 -96 -53 -96 -105 0 -103 91 -168 740 -530
424 -236 590 -334 723 -425 92 -62 187 -143 187 -157 0 -16 -103 21 -213 77
-130 65 -299 165 -618 364 -450 282 -575 344 -655 323 -71 -18 -98 -98 -59
-174 23 -44 121 -141 207 -204 37 -27 67 -51 65 -52 -1 -2 -23 2 -47 7 -104
24 -200 -25 -200 -102 0 -79 61 -124 620 -449 201 -117 437 -257 525 -312 217
-136 398 -269 384 -282 -10 -11 -118 32 -257 102 -155 78 -295 156 -597 332
-283 165 -438 245 -512 266 -59 16 -62 16 -95 -3 -43 -25 -61 -76 -46 -129 14
-51 108 -143 223 -218 120 -79 120 -79 24 -45 -95 33 -128 35 -173 14 -42 -20
-66 -63 -66 -118 0 -36 8 -57 41 -105 22 -34 53 -72 69 -86 l30 -25 -35 -11
c-44 -14 -85 -63 -85 -100 0 -56 51 -93 590 -437 190 -121 386 -246 435 -278
144 -94 401 -274 421 -296 18 -20 17 -20 -41 2 -122 45 -250 106 -670 318
-434 219 -540 264 -623 264 -38 0 -50 -5 -74 -31 -37 -42 -37 -84 0 -143 70
-109 273 -252 907 -639 419 -255 446 -272 442 -277 -16 -15 -389 175 -794 404
-310 174 -422 231 -476 240 -31 5 -40 1 -67 -25 -35 -35 -38 -65 -11 -106 38
-57 161 -143 651 -451 343 -215 715 -459 725 -475 11 -17 -136 53 -398 192
-571 303 -761 388 -863 388 -107 0 -161 -86 -119 -188 19 -44 98 -128 179
-188 32 -24 56 -44 53 -44 -2 0 -24 7 -47 15 -96 34 -173 9 -186 -60 -11 -58
39 -123 178 -234 4 -3 -19 -6 -52 -6 -51 0 -63 -4 -89 -29 -24 -23 -31 -39
-31 -67 0 -65 58 -108 605 -444 292 -179 685 -433 685 -442 0 -6 -127 63 -420
230 -462 263 -680 367 -773 367 -31 0 -46 -7 -73 -34 -51 -51 -43 -100 29
-174 87 -90 208 -169 677 -445 168 -98 350 -206 405 -240 109 -66 305 -197
305 -203 0 -9 -113 41 -220 98 -150 79 -391 225 -725 438 -292 187 -386 240
-426 240 -28 0 -63 -32 -73 -67 -15 -47 53 -123 202 -227 45 -32 82 -59 82
-61 0 -3 -37 13 -82 35 -110 53 -142 59 -173 30 -33 -31 -41 -79 -21 -118 38
-74 180 -167 686 -447 456 -253 719 -415 780 -480 l25 -27 -55 24 c-80 36
-190 100 -505 293 -464 285 -603 359 -738 390 -85 20 -141 9 -179 -35 -41 -45
-39 -98 7 -160 19 -26 42 -51 50 -54 24 -9 17 -21 -21 -35 -77 -28 -99 -134
-44 -209 17 -23 30 -44 30 -46 0 -3 -13 -18 -30 -34 -24 -25 -30 -39 -30 -75
0 -37 7 -54 39 -94 l38 -49 -29 -13 c-18 -8 -36 -27 -44 -47 -23 -54 1 -97 98
-174 l47 -38 -50 -4 c-93 -9 -136 -84 -91 -160 33 -56 159 -138 592 -383 347
-197 452 -260 618 -368 262 -173 218 -152 -483 229 -494 268 -675 322 -745
224 -48 -68 -11 -156 108 -256 127 -105 441 -305 840 -533 50 -30 92 -55 92
-57 0 -7 -67 29 -299 158 -561 313 -680 360 -746 294 -56 -56 -42 -127 41
-210 95 -95 289 -219 834 -531 274 -157 464 -274 457 -281 -6 -7 -167 61 -277
116 -138 69 -323 172 -633 352 -299 173 -349 198 -400 198 -31 0 -40 -5 -57
-32 -38 -63 -23 -113 57 -189 103 -98 188 -152 691 -441 359 -205 620 -368
594 -368 -48 0 -358 152 -765 377 -434 240 -498 267 -571 249 -35 -9 -60 -59
-53 -107 13 -101 118 -174 717 -496 411 -221 589 -330 645 -393 l20 -23 -25 7
c-159 44 -398 157 -855 403 -357 193 -439 226 -494 203 -28 -11 -44 -33 -56
-78 -7 -25 33 -104 63 -121 14 -8 9 -10 -21 -11 -29 0 -46 -7 -68 -29 -57 -57
-28 -120 90 -201 31 -20 226 -139 434 -264 365 -218 642 -394 634 -403 -6 -6
-235 85 -637 252 -535 223 -594 241 -634 196 -25 -28 -31 -83 -12 -118 16 -33
13 -43 -15 -43 -27 0 -77 -47 -84 -80 -14 -63 43 -125 210 -232 39 -25 210
-127 380 -228 295 -174 565 -343 565 -354 0 -16 -214 92 -520 264 -400 224
-536 287 -645 297 -78 7 -126 -13 -150 -64 -21 -44 -14 -73 30 -122 l35 -39
-37 14 c-66 23 -108 18 -137 -17 -55 -65 -24 -123 112 -213 53 -35 225 -135
382 -221 373 -207 615 -353 635 -384 14 -23 -116 41 -457 225 -576 311 -756
386 -852 354 -65 -21 -95 -88 -61 -137 22 -31 89 -73 440 -273 367 -210 655
-388 655 -405 0 -5 -88 35 -425 195 -597 283 -787 360 -883 360 -48 0 -92 -46
-92 -95 0 -113 100 -186 732 -535 103 -57 186 -105 184 -107 -2 -2 -89 39
-194 91 -611 306 -889 418 -989 400 -18 -3 -44 -18 -59 -32 -22 -23 -25 -33
-22 -73 l5 -47 -51 24 c-101 47 -186 20 -186 -60 0 -34 21 -59 90 -109 14 -10
2 -6 -27 8 -74 35 -196 75 -233 75 -51 0 -98 -25 -116 -63 -20 -41 -14 -74 21
-115 l25 -30 -81 34 c-162 68 -308 91 -383 60 -44 -18 -76 -61 -76 -102 0 -64
53 -102 495 -349 599 -334 832 -481 958 -602 74 -72 61 -79 -64 -38 -167 56
-479 221 -1094 580 -614 358 -697 401 -785 412 -43 5 -51 3 -74 -20 -35 -35
-42 -73 -24 -124 l16 -43 -52 30 c-88 53 -249 129 -288 136 -34 6 -41 3 -74
-30 -34 -34 -36 -38 -32 -96 1 -33 2 -60 1 -60 -1 0 -40 25 -85 57 -46 31
-111 69 -145 85 -58 28 -63 28 -97 14 -40 -17 -61 -55 -51 -94 20 -79 220
-226 945 -692 352 -226 660 -430 660 -436 0 -21 -347 189 -955 579 -779 500
-1006 625 -1171 643 -60 6 -111 -17 -134 -61 -8 -16 -16 -32 -17 -33 -1 -2
-21 8 -45 21 -70 41 -167 70 -216 64 -48 -5 -93 -40 -112 -87 l-12 -28 -83 39
c-47 22 -114 47 -149 56 -58 14 -70 14 -103 2 -21 -8 -47 -28 -58 -45 l-20
-30 -77 32 c-42 18 -104 38 -137 45 -53 10 -67 9 -105 -5 -49 -19 -76 -51 -76
-91 0 -31 -1 -31 -53 -1 -69 40 -208 94 -274 105 -100 18 -172 -7 -218 -76
l-20 -29 -82 38 c-99 47 -171 62 -224 48 -34 -9 -71 -42 -81 -71 -2 -5 -32 3
-68 20 -215 97 -340 103 -423 20 -34 -33 -39 -44 -35 -74 2 -19 1 -34 -2 -33
-4 2 -58 29 -122 61 -129 65 -228 91 -283 76 -34 -10 -75 -50 -75 -75 0 -19
-2 -18 -69 15 -80 41 -173 71 -218 71 -75 0 -126 -49 -125 -119 0 -23 -1 -41
-3 -41 -2 0 -42 24 -87 54 -116 75 -161 96 -206 96 -48 0 -82 -29 -82 -71 0
-63 19 -78 299 -238 143 -82 279 -174 586 -397 599 -435 859 -614 1100 -758
l120 -71 -43 -3 c-58 -4 -125 19 -259 89 -217 112 -418 253 -1138 794 -467
352 -722 530 -875 613 -91 50 -215 92 -267 92 -80 -1 -153 -57 -153 -118 0
-17 -13 -13 -108 33 -214 107 -367 139 -454 96 -84 -40 -111 -135 -63 -219 13
-23 21 -41 17 -39 -4 2 -74 42 -157 87 -272 152 -438 220 -532 220 -82 0 -138
-84 -102 -152 10 -19 7 -19 -37 7 -168 99 -378 200 -501 241 -179 60 -313 21
-313 -91 0 -19 -2 -35 -4 -35 -2 0 -80 57 -173 127 -326 245 -449 297 -513
216 -93 -119 94 -271 1075 -871 127 -78 269 -184 620 -461 l30 -23 -30 18
c-16 10 -109 67 -205 127 -96 61 -495 302 -886 537 l-710 427 -300 235 c-1193
935 -1764 1322 -2129 1444 -56 19 -112 34 -123 34 -37 0 -207 200 -227 268
-11 38 23 27 187 -56 184 -94 432 -242 953 -570 764 -481 858 -530 919 -473
31 29 38 68 19 108 -31 65 -152 145 -853 556 -625 366 -888 530 -1089 679
-108 80 -191 160 -191 183 0 20 8 19 83 -6 100 -34 236 -108 641 -351 553
-333 742 -421 863 -403 88 13 136 92 96 155 -24 39 -106 100 -240 181 -56 34
-103 63 -103 64 0 2 21 -4 48 -12 119 -37 210 7 219 104 8 76 -31 139 -146
236 l-45 37 30 0 c16 0 34 4 40 8 24 16 44 59 44 92 0 110 -150 226 -670 520
-644 364 -878 505 -865 519 12 12 333 -161 620 -334 574 -347 610 -368 673
-398 35 -16 83 -32 107 -35 38 -4 47 -1 69 23 60 65 43 141 -54 236 l-68 67
31 6 c47 9 87 53 87 94 0 46 -26 79 -115 147 -41 32 -75 59 -75 61 0 2 13 1
29 -2 65 -13 151 46 151 103 0 62 -71 138 -245 263 -84 60 -84 61 -24 45 113
-30 192 -12 237 55 29 44 25 87 -16 145 -65 92 -229 199 -737 480 -413 228
-685 387 -685 401 0 10 110 -42 534 -253 618 -308 752 -364 826 -346 43 10 70
43 70 84 0 48 -35 83 -157 156 -51 31 -93 57 -93 59 0 1 19 -6 43 -16 96 -42
164 -34 193 23 26 49 11 89 -52 145 -63 57 -200 139 -589 354 -518 287 -768
442 -850 529 l-40 42 30 -7 c66 -16 270 -110 680 -314 237 -118 472 -231 523
-253 179 -74 258 -75 289 -1 45 109 -26 166 -792 630 -203 123 -374 228 -380
234 -5 6 96 -44 225 -111 554 -288 743 -371 845 -371 47 0 56 3 79 31 51 60
28 112 -91 209 -43 35 -82 67 -88 72 -5 5 14 6 45 3 68 -8 117 15 143 67 41
83 -11 128 -570 488 -376 242 -823 539 -823 546 0 3 44 -18 98 -46 117 -63
347 -214 692 -454 340 -237 458 -306 526 -306 16 0 39 13 60 34 27 27 34 42
34 74 0 55 -12 83 -56 132 -20 22 -35 42 -33 43 2 2 17 8 32 15 17 7 34 27 43
49 26 60 6 104 -85 193 -122 118 -359 277 -918 615 -154 94 -279 172 -278 174
7 7 320 -162 642 -346 432 -246 519 -286 588 -269 31 8 65 60 65 101 -1 109
-146 218 -645 485 -364 195 -603 328 -695 388 -94 61 -173 122 -166 129 9 10
114 -32 237 -93 69 -34 264 -141 432 -238 411 -236 521 -290 641 -317 66 -15
116 -6 156 27 24 21 30 34 30 64 0 68 -35 93 -550 405 -344 208 -590 364 -710
448 -98 69 -211 159 -207 164 18 18 320 -133 647 -323 259 -150 511 -285 580
-309 155 -55 250 -26 250 78 0 110 -104 185 -700 507 -343 185 -478 262 -605
346 -133 87 -188 133 -162 134 46 1 277 -130 637 -362 455 -291 587 -358 713
-358 54 0 62 3 93 34 63 63 42 145 -62 235 -86 76 -254 177 -689 416 -280 153
-475 264 -475 271 0 4 -4 6 375 -161 461 -202 657 -278 772 -299 111 -19 161
96 88 203 -39 56 -41 61 -23 61 26 0 58 43 58 80 0 46 -34 80 -184 184 -60 42
-106 76 -103 76 2 0 22 -6 43 -14 132 -46 244 -17 260 70 7 39 -6 66 -58 120
l-39 41 30 6 c37 8 68 37 77 74 17 68 -67 145 -411 375 -132 89 -244 165 -249
169 -6 5 62 -24 150 -64 204 -95 304 -133 385 -148 57 -10 69 -10 98 5 39 21
65 76 58 123 -7 42 -53 105 -111 153 l-45 37 54 -1 c46 0 59 4 84 28 42 40 47
79 17 131 -44 75 -156 149 -636 425 -349 201 -569 334 -611 370 -58 50 210
-96 653 -357 441 -259 540 -304 596 -272 33 18 54 74 40 109 -5 14 -27 44 -50
66 l-40 42 30 7 c72 15 111 74 88 129 -16 39 -68 80 -311 246 -99 68 -184 127
-190 132 -5 5 69 -29 165 -76 273 -132 348 -151 395 -100 86 93 -23 195 -595
564 -96 62 -179 117 -184 121 -5 5 101 -41 236 -100 464 -206 597 -242 656
-178 48 54 32 108 -54 186 -68 61 -289 211 -589 401 -330 209 -307 198 170
-73 465 -265 552 -301 609 -244 32 32 35 83 6 120 -12 15 -62 54 -113 88 -51
34 -94 63 -96 65 -3 3 40 -17 94 -42 57 -27 119 -49 146 -52 41 -4 48 -1 67
23 30 37 29 91 -3 136 -41 61 -185 166 -450 329 -66 40 -124 78 -130 83 -11
11 -6 8 208 -115 76 -44 195 -107 264 -140 106 -52 135 -62 194 -66 66 -4 72
-3 99 23 54 52 47 117 -19 188 l-26 28 65 -30 c78 -37 103 -39 135 -7 32 32
41 86 21 127 -9 18 -16 33 -16 34 0 1 33 0 73 -3 71 -4 75 -3 110 28 99 86 34
190 -224 359 -64 42 -125 82 -136 89 -10 7 65 -30 167 -82 352 -179 444 -207
489 -150 55 71 5 160 -154 277 -38 28 -74 54 -80 59 -5 5 56 -25 135 -65 286
-145 416 -160 469 -52 11 22 11 36 3 57 -5 15 -9 28 -7 28 1 0 22 -9 46 -20
24 -11 66 -20 92 -20 40 0 53 5 78 29 33 33 39 84 14 117 -26 34 -17 33 63 -8
98 -50 156 -59 194 -29 34 27 44 71 24 109 -37 72 -155 156 -671 477 -368 229
-605 382 -605 391 0 2 71 -31 158 -75 168 -86 378 -204 802 -453 493 -289 637
-361 726 -362 61 -1 88 18 105 74 11 36 5 57 -39 142 -2 4 56 -23 130 -60 163
-83 249 -112 329 -112 54 0 64 3 91 30 25 26 29 37 26 70 -2 22 -2 40 -1 40 1
0 42 -20 90 -45 95 -49 169 -75 215 -75 72 0 125 61 115 132 -3 22 -2 38 2 36
4 -2 56 -28 116 -60 142 -73 214 -94 266 -79 39 12 79 52 79 80 1 42 15 42 93
-3 102 -58 161 -74 196 -55 14 8 35 32 45 55 l19 41 82 -38 c161 -76 251 -84
307 -29 44 44 35 98 -27 153 -51 46 -239 162 -580 357 -488 280 -625 361 -839
497 -301 191 -476 333 -476 386 0 17 6 19 53 15 149 -13 522 -239 1337 -810
653 -457 863 -586 1005 -618 59 -13 96 -6 135 26 l29 25 88 -31 c156 -55 272
-37 304 47 l8 22 66 -29 c116 -52 224 -82 300 -82 78 0 118 12 155 47 l25 23
90 -30 c166 -57 278 -47 345 28 55 63 39 140 -49 236 -143 157 -426 342 -1246
818 -329 190 -577 341 -571 347 6 7 171 -79 351 -182 218 -125 547 -329 1055
-655 545 -350 710 -451 856 -526 131 -68 182 -83 220 -65 35 16 64 69 64 118
l0 43 65 -40 c172 -106 336 -170 429 -170 95 1 176 59 176 129 l0 30 121 -59
c201 -97 336 -116 399 -55 53 51 39 109 -45 188 -54 50 -391 268 -798 516
-476 290 -649 398 -862 542 -175 118 -330 237 -321 246 10 11 323 -151 511
-264 239 -144 334 -205 916 -578 871 -561 1113 -695 1250 -695 92 0 137 71 99
157 l-20 45 28 -18 c195 -128 311 -190 371 -200 34 -5 43 -3 65 19 35 35 42
73 24 124 -9 24 -14 43 -13 43 2 0 34 -19 71 -42 296 -180 498 -244 589 -188
36 22 60 69 52 101 -6 24 -15 28 105 -44 140 -83 224 -120 284 -125 49 -4 56
-2 84 26 63 64 28 152 -103 257 -139 112 -329 229 -917 568 -906 521 -1269
761 -1235 817 10 17 99 11 168 -10z m-1082 -48 c175 -90 419 -246 874 -560
186 -129 253 -177 220 -160 -134 70 -761 440 -924 546 -175 113 -325 232 -294
232 6 0 62 -26 124 -58z m2790 -19 c91 -38 93 -39 108 -86 34 -99 141 -215
337 -364 183 -139 663 -440 1088 -683 111 -63 213 -135 266 -188 19 -19 39
-31 -295 170 -966 581 -1464 904 -1673 1085 -107 94 -105 118 10 109 46 -3 95
-16 159 -43z m-1951 -127 c247 -155 1047 -708 945 -654 -35 19 -430 260 -575
351 -324 204 -609 402 -650 452 -20 25 124 -51 280 -149z m-2430 31 c132 -84
558 -373 575 -389 29 -29 -376 208 -525 307 -125 83 -242 175 -249 197 -4 13
21 -2 199 -115z m4806 72 c129 -40 428 -205 599 -331 33 -25 108 -77 167 -116
143 -96 499 -363 963 -723 209 -162 417 -323 463 -358 45 -35 82 -66 82 -68 0
-3 -19 6 -42 20 -24 13 -232 132 -463 262 -231 131 -430 245 -442 254 -11 9
-138 112 -280 229 -449 367 -844 666 -1048 792 -111 69 -111 74 1 39z m-7423
-152 c87 -61 160 -114 163 -119 20 -32 -354 218 -387 259 -21 26 42 -14 224
-140z m443 -33 c200 -141 234 -165 234 -170 0 -6 -203 120 -318 199 -57 38
-124 89 -150 114 l-47 44 71 -44 c38 -25 133 -89 210 -143z m-1513 34 c124
-74 397 -256 397 -264 0 -13 -421 248 -485 301 -49 41 -21 29 88 -37z m4557
-310 c74 -47 288 -179 475 -293 345 -211 772 -480 790 -497 37 -35 -235 109
-434 230 -255 154 -1201 783 -1201 798 0 2 53 -31 118 -74 64 -43 178 -117
252 -164z m-5587 161 c148 -75 356 -210 807 -527 297 -209 295 -209 -55 -4
-282 165 -483 289 -638 395 -121 81 -233 176 -209 177 7 0 49 -19 95 -41z
m9743 -75 c16 -14 2 -7 -32 16 -33 23 -74 53 -90 66 -16 14 -2 7 32 -16 33
-23 74 -53 90 -66z m704 10 c0 -2 -9 0 -20 6 -11 6 -20 13 -20 16 0 2 9 0 20
-6 11 -6 20 -13 20 -16z m-9840 -20 c0 -2 -9 0 -20 6 -11 6 -20 13 -20 16 0 2
9 0 20 -6 11 -6 20 -13 20 -16z m9220 -51 c0 -7 -39 17 -46 28 -3 6 5 3 20 -6
14 -10 26 -19 26 -22z m-9977 -170 c133 -78 176 -112 60 -47 -118 65 -233 135
-233 140 0 7 26 -7 173 -93z m177 -109 c0 -2 -9 0 -20 6 -11 6 -20 13 -20 16
0 2 9 0 20 -6 11 -6 20 -13 20 -16z m1815 -257 c210 -124 356 -221 415 -276
l45 -43 -115 60 c-63 32 -160 87 -215 122 -142 90 -605 399 -605 405 0 6 269
-146 475 -268z m3985 48 c255 -140 425 -241 513 -308 63 -48 67 -52 43 -55
-68 -8 -235 73 -472 229 -150 99 -454 316 -479 342 -11 11 100 -47 395 -208z
m3514 95 c81 -46 317 -207 620 -425 1527 -1093 2247 -1571 2741 -1817 162 -81
247 -115 355 -144 l85 -22 66 -81 c112 -138 162 -260 130 -320 -12 -21 -13
-21 -69 25 -159 130 -496 336 -1177 719 -673 378 -823 475 -861 553 -11 24
-27 48 -35 53 -22 14 -62 11 -87 -7 -22 -15 -27 -12 -165 98 -449 361 -613
500 -635 541 -48 89 -165 186 -405 340 -91 57 -248 177 -437 330 -318 259
-343 281 -290 250 19 -11 93 -53 164 -93z m-1169 -152 c322 -195 577 -357 562
-358 -15 0 -175 85 -297 158 -136 82 -650 421 -650 429 0 2 15 -4 33 -15 17
-11 176 -107 352 -214z m-4917 -16 c227 -159 222 -155 195 -142 -30 14 -443
290 -443 296 0 12 96 -48 248 -154z m-4463 120 c119 -57 330 -195 680 -445
148 -106 182 -133 125 -100 -579 340 -731 436 -865 548 -40 34 -15 32 60 -3z
m2540 -107 c215 -128 477 -305 451 -305 -9 0 -124 66 -226 130 -115 72 -420
280 -420 286 0 3 15 -3 33 -14 17 -11 91 -55 162 -97z m-1225 49 c0 -2 -9 0
-20 6 -11 6 -20 13 -20 16 0 2 9 0 20 -6 11 -6 20 -13 20 -16z m320 -172 c138
-77 310 -182 310 -189 0 -3 -35 14 -77 37 -125 68 -523 301 -523 306 0 5 111
-53 290 -154z m3315 28 c127 -75 306 -192 302 -197 -7 -6 -97 27 -162 60 -33
16 -89 56 -123 89 -35 32 -88 75 -118 95 -59 39 -74 56 -21 25 17 -10 73 -43
122 -72z m7965 -175 c571 -324 912 -559 991 -683 36 -57 36 -66 2 -58 -90 21
-307 154 -600 367 -196 143 -679 512 -708 542 -24 23 -9 16 315 -168z m30
-485 c768 -439 1196 -725 1293 -863 34 -50 34 -57 -3 -57 -22 0 -61 23 -147
89 -212 159 -554 388 -928 621 -117 72 -363 259 -440 333 -13 13 -23 19 225
-123z m-705 -48 c785 -460 1314 -801 1702 -1099 67 -51 125 -98 129 -105 18
-29 -407 215 -721 415 -343 219 -637 416 -1142 769 -328 229 -326 230 32 20z
m-12300 3 c350 -204 603 -381 320 -224 -105 58 -535 336 -535 346 0 3 15 -4
33 -15 17 -11 100 -59 182 -107z m230 45 c3 -6 -1 -7 -9 -4 -18 7 -21 14 -7
14 6 0 13 -4 16 -10z m-875 -266 c0 -2 -9 0 -20 6 -11 6 -20 13 -20 16 0 2 9
0 20 -6 11 -6 20 -13 20 -16z m160 -90 c0 -2 -13 2 -30 11 -16 9 -30 18 -30
21 0 2 14 -2 30 -11 17 -9 30 -18 30 -21z m205 -114 c158 -91 247 -146 175
-110 -55 28 -370 212 -370 217 0 2 3 2 8 0 4 -2 88 -51 187 -107z m-225 -56
c0 -2 -9 0 -20 6 -11 6 -20 13 -20 16 0 2 9 0 20 -6 11 -6 20 -13 20 -16z
m14670 -521 c54 -19 91 -45 182 -132 62 -58 127 -145 116 -156 -2 -2 -44 32
-93 76 -50 45 -135 117 -190 162 -55 44 -91 77 -80 73 11 -5 40 -15 65 -23z
m-560 -419 c356 -202 757 -450 746 -461 -9 -9 -218 86 -333 152 -207 119 -659
418 -713 472 -17 17 -15 16 300 -163z m54 -791 c110 -64 220 -127 244 -140 43
-25 60 -43 20 -22 -158 83 -568 318 -568 325 0 8 101 -47 304 -163z m946 126
c12 -16 21 -32 19 -34 -2 -2 -35 9 -73 23 -63 25 -66 27 -40 33 58 13 72 10
94 -22z m-16205 -97 c109 -60 385 -231 385 -238 0 -4 -141 69 -295 154 -98 54
-265 159 -265 167 0 8 79 -29 175 -83z m15595 -228 c0 -2 -9 0 -20 6 -11 6
-20 13 -20 16 0 2 9 0 20 -6 11 -6 20 -13 20 -16z m-15710 -360 c112 -61 550
-356 550 -370 0 -23 -579 334 -660 405 l-35 31 40 -15 c22 -9 69 -32 105 -51z
m570 -559 c293 -166 440 -253 440 -261 0 -7 -200 96 -300 154 -133 78 -433
263 -445 275 -13 13 -37 26 305 -168z m-638 4 c79 -40 272 -160 403 -252 55
-38 96 -68 90 -66 -105 40 -546 301 -590 349 l-19 21 26 -10 c15 -5 55 -24 90
-42z m15918 -594 c213 -118 448 -259 487 -292 l28 -24 -51 25 c-99 48 -623
362 -649 389 -12 12 -30 22 185 -98z m-15155 -533 c163 -92 368 -222 361 -229
-5 -5 -96 40 -208 105 -103 59 -439 271 -453 285 -12 12 101 -48 300 -161z
m123 -469 c61 -36 112 -67 112 -69 0 -6 -45 17 -222 118 -87 49 -158 91 -158
94 0 6 96 -45 268 -143z m-548 -169 c0 -2 -9 0 -20 6 -11 6 -20 13 -20 16 0 2
9 0 20 -6 11 -6 20 -13 20 -16z m-421 -2475 c87 -46 359 -224 818 -537 259
-177 259 -175 8 -32 -524 299 -907 549 -929 606 -8 21 -1 18 103 -37z m746
-1457 c175 -111 445 -291 445 -298 0 -17 -570 352 -615 399 -14 14 -2 7 170
-101z m-607 -127 c117 -71 154 -100 55 -44 -83 47 -183 110 -183 115 0 7 -4 9
128 -71z m51 -646 c111 -61 381 -220 381 -226 0 -2 -30 13 -67 33 -313 173
-416 233 -399 234 5 0 43 -19 85 -41z m376 -394 c540 -295 785 -445 869 -534
83 -87 -59 -31 -324 129 -161 97 -1023 666 -935 618 6 -3 181 -99 390 -213z
m-136 -139 c441 -292 459 -307 116 -102 -267 160 -474 301 -515 352 -14 16
-12 16 19 -2 19 -10 190 -122 380 -248z m471 -482 c0 -2 -9 0 -20 6 -11 6 -20
13 -20 16 0 2 9 0 20 -6 11 -6 20 -13 20 -16z m280 -155 c99 -57 178 -104 176
-106 -7 -8 -446 242 -446 254 0 5 21 -6 270 -148z m-900 -454 c358 -310 1025
-755 2206 -1472 257 -156 308 -192 610 -430 405 -318 725 -567 907 -703 75
-56 137 -104 137 -107 0 -2 -3 -2 -7 0 -5 3 -84 49 -178 103 -93 54 -222 137
-285 184 -409 308 -963 656 -2160 1359 -436 256 -525 313 -650 412 -282 224
-425 324 -516 365 -44 19 -61 35 -104 96 -53 75 -85 161 -74 194 8 22 34 54
44 54 3 0 35 -25 70 -55z m643 -269 c223 -143 778 -539 687 -491 -85 45 -920
612 -955 648 -20 20 113 -57 268 -157z m12637 -1302 c0 -2 -9 0 -20 6 -11 6
-20 13 -20 16 0 2 9 0 20 -6 11 -6 20 -13 20 -16z m315 -172 c83 -46 250 -151
372 -232 121 -81 250 -164 285 -184 57 -32 123 -86 104 -86 -26 0 -240 130
-591 360 -165 108 -339 220 -387 250 -49 29 -88 55 -88 57 0 5 96 -47 305
-165z m-8344 -31 c100 -34 309 -147 526 -282 216 -136 907 -607 988 -674 18
-15 -77 33 -150 75 -16 10 -217 113 -445 230 -228 117 -469 242 -535 278 -424
230 -621 392 -477 392 21 0 63 -8 93 -19z m-481 -159 c228 -127 968 -577 995
-605 6 -6 -8 0 -30 13 -22 12 -204 117 -405 233 -585 337 -840 489 -840 503 0
7 132 -61 280 -144z m1165 80 c119 -62 421 -270 732 -504 163 -123 304 -229
313 -236 28 -24 -8 -2 -238 145 -469 302 -878 584 -921 637 -13 15 -12 16 15
6 15 -6 60 -28 99 -48z m1921 -5 c101 -41 270 -135 377 -209 103 -72 401 -273
527 -355 139 -91 170 -121 60 -59 -52 29 -225 126 -385 216 -337 188 -617 354
-695 411 l-55 41 45 -6 c25 -4 81 -22 126 -39z m825 27 c123 -37 367 -177 659
-380 179 -123 605 -432 641 -464 22 -20 19 -19 -21 3 -790 434 -942 521 -1130
645 -135 89 -240 177 -240 202 0 14 28 13 91 -6z m1365 -19 c38 -20 113 -66
169 -102 109 -74 571 -418 581 -434 31 -50 -724 421 -806 502 -76 76 -53 90
56 34z m484 -33 c167 -85 770 -451 770 -468 0 -5 -20 6 -345 184 -322 175
-587 341 -550 342 6 0 62 -26 125 -58z m-1945 -177 c159 -105 596 -419 665
-476 l25 -21 -35 20 c-128 72 -375 228 -485 305 -71 51 -200 138 -285 194
-155 101 -248 171 -249 186 -2 17 194 -94 364 -208z m-1649 150 c125 -65 316
-185 564 -353 193 -130 236 -162 160 -119 -386 217 -645 372 -760 458 -75 55
-90 69 -73 69 3 0 53 -25 109 -55z m4704 -37 c125 -76 172 -111 75 -58 -83 46
-235 140 -235 146 0 6 26 -8 160 -88z m-9210 -120 c168 -97 463 -264 655 -373
376 -213 439 -258 602 -428 74 -77 132 -161 120 -174 -19 -19 -667 374 -919
558 -280 205 -778 585 -778 595 0 3 3 3 8 1 4 -3 144 -83 312 -179z m1805
-173 c932 -552 1137 -680 1318 -817 93 -71 159 -136 151 -149 -10 -17 -74 -9
-155 17 -63 21 -83 33 -94 54 -58 113 -390 353 -1050 759 -427 263 -441 272
-482 309 -23 21 -28 28 -13 20 14 -8 160 -95 325 -193z m7585 179 c0 -2 -9 0
-20 6 -11 6 -20 13 -20 16 0 2 9 0 20 -6 11 -6 20 -13 20 -16z m583 -476 c328
-172 511 -282 566 -342 21 -22 22 -26 7 -32 -60 -23 -303 98 -648 322 -130 85
-485 329 -503 347 -11 10 239 -118 578 -295z m-8628 120 c639 -391 1007 -636
1085 -723 l25 -28 -30 7 c-88 19 -337 165 -615 360 -173 121 -700 515 -700
522 0 3 3 3 8 1 4 -3 106 -65 227 -139z m7650 -178 c420 -234 645 -385 686
-462 10 -19 5 -22 -41 -18 -43 3 -186 79 -343 184 -128 84 -561 404 -647 477
-29 24 56 -20 345 -181z m-1325 50 c385 -240 759 -497 815 -560 18 -20 12 -19
-45 10 -133 67 -365 224 -795 538 -163 119 -219 163 -165 130 14 -8 99 -61
190 -118z m-4600 -15 c397 -230 742 -454 840 -545 l55 -52 -70 37 c-38 21
-137 80 -220 133 -186 118 -805 532 -805 539 0 2 15 -4 33 -15 17 -11 93 -55
167 -97z m3260 -60 c266 -153 456 -270 581 -358 108 -77 223 -176 215 -185 -8
-7 -187 97 -380 222 -190 124 -704 473 -721 489 -12 12 56 -25 305 -168z
m-2355 -92 c212 -112 411 -227 512 -294 97 -66 199 -152 185 -157 -22 -7 -370
196 -832 486 -118 74 -219 139 -225 144 -13 13 134 -60 360 -179z m2040 2
c216 -129 496 -319 565 -384 l65 -61 -80 47 c-140 83 -745 497 -745 510 0 2
15 -4 33 -15 17 -11 91 -55 162 -97z m1605 -188 c213 -127 411 -265 344 -241
-50 18 -265 153 -464 292 -129 90 -90 74 120 -51z m-6023 -86 c143 -87 256
-165 255 -176 0 -6 -19 -14 -42 -19 -44 -10 -182 12 -246 39 -33 13 -34 16
-34 67 0 31 -9 71 -20 97 -21 46 -23 51 -15 51 2 0 48 -27 102 -59z m4454 -52
c63 -42 140 -100 170 -129 l54 -51 -34 5 c-19 3 -68 21 -110 39 -65 28 -79 38
-99 75 -13 23 -47 68 -75 99 -59 65 -61 66 94 -38z"/>
<path d="M14144 15442 c-42 -29 -57 -108 -29 -161 24 -47 127 -132 237 -198
57 -34 263 -145 458 -246 440 -228 636 -343 603 -354 -38 -13 -339 142 -858
442 -302 175 -506 282 -588 309 -75 25 -139 21 -171 -10 -37 -37 -35 -88 4
-142 55 -76 262 -225 670 -482 174 -109 273 -177 180 -123 -98 57 -742 390
-841 435 -75 34 -131 53 -166 56 -50 4 -53 3 -73 -29 -40 -65 -10 -106 150
-206 136 -86 137 -87 39 -47 -108 43 -171 51 -226 29 -50 -20 -73 -52 -73
-100 0 -79 106 -156 691 -506 478 -284 747 -459 709 -459 -23 0 -231 114 -376
205 -76 49 -281 183 -454 299 -173 116 -349 228 -391 249 -110 54 -167 49
-195 -19 -21 -51 -5 -99 53 -155 82 -79 190 -145 618 -376 266 -145 419 -233
413 -239 -3 -2 -114 41 -249 97 -433 179 -520 200 -581 139 -25 -26 -29 -36
-24 -63 8 -41 30 -58 206 -164 80 -48 164 -106 187 -130 49 -49 89 -57 124
-22 16 16 20 30 17 65 -2 27 1 43 7 40 5 -2 77 -31 159 -65 280 -115 374 -134
421 -87 13 13 27 36 31 51 6 24 9 25 38 18 17 -4 57 -8 89 -8 55 0 61 2 93 37
42 46 44 84 9 144 l-25 42 68 -24 c37 -13 80 -24 95 -24 62 0 117 54 117 115
0 76 -108 194 -304 333 -33 23 -57 42 -53 42 3 0 77 -35 164 -78 243 -119 321
-138 362 -86 12 15 21 41 21 61 0 70 -104 147 -710 528 -370 233 -560 355
-560 362 0 2 15 -4 33 -15 17 -11 150 -88 295 -171 625 -361 839 -456 952
-422 56 17 90 61 90 118 0 125 -130 220 -720 523 -173 89 -335 174 -360 188
-103 58 -161 94 -157 98 2 2 134 -37 293 -86 431 -135 523 -161 590 -167 77
-7 104 13 104 79 0 57 -36 89 -237 212 -89 54 -167 104 -174 112 -16 19 -84
18 -103 -2 -36 -35 -29 -87 18 -127 12 -11 15 -17 6 -14 -8 2 -119 36 -246 76
-347 107 -436 127 -470 103z m-191 -1029 c48 -30 87 -57 87 -60 0 -3 -10 1
-22 9 -13 8 -62 38 -110 67 -49 30 -88 56 -88 58 0 6 34 -14 133 -74z m442
-88 c343 -209 706 -457 692 -472 -10 -10 -211 119 -587 375 -415 284 -422 290
-105 97z m-305 -1 c0 -2 -9 0 -20 6 -11 6 -20 13 -20 16 0 2 9 0 20 -6 11 -6
20 -13 20 -16z"/>
<path d="M9677 14332 c-35 -19 -41 -19 -90 -6 -129 34 -251 3 -304 -77 -34
-52 -30 -128 11 -190 15 -23 22 -38 15 -33 -224 138 -326 182 -393 170 -50
-10 -96 -68 -96 -123 0 -28 35 -109 67 -152 14 -19 2 -15 -83 27 -246 123
-364 138 -409 52 -59 -114 90 -235 900 -730 369 -226 658 -411 651 -417 -9 -9
-287 134 -497 256 -113 65 -367 217 -565 338 -579 354 -703 420 -800 430 -44
5 -58 2 -75 -13 -51 -46 -61 -106 -29 -169 11 -22 20 -40 20 -41 0 -1 -32 11
-70 27 -134 57 -205 49 -230 -25 -15 -47 6 -92 69 -147 65 -58 280 -198 611
-399 320 -194 520 -319 520 -326 0 -12 -203 103 -630 357 -510 304 -720 403
-814 385 -45 -9 -80 -48 -80 -90 0 -70 63 -121 584 -467 222 -148 401 -269
397 -269 -10 0 -244 118 -590 297 -551 285 -628 311 -677 230 -26 -43 -25 -87
4 -129 l24 -35 -47 14 c-26 8 -71 13 -103 11 -68 -5 -104 -32 -114 -86 -5 -28
-1 -42 24 -77 l30 -43 -33 14 c-41 17 -98 18 -127 3 -28 -15 -50 -72 -39 -102
20 -53 64 -81 631 -417 259 -153 457 -282 515 -334 l40 -36 -30 7 c-85 19
-336 138 -700 333 -400 214 -526 270 -611 270 -37 0 -51 -6 -75 -29 -51 -52
-42 -123 28 -210 l28 -34 -40 20 c-94 48 -142 46 -170 -6 -42 -82 8 -123 570
-475 121 -76 225 -142 230 -148 6 -5 -39 14 -100 42 -309 145 -545 242 -666
275 -93 24 -199 18 -233 -14 -31 -30 -41 -82 -22 -118 39 -76 143 -146 562
-378 301 -168 514 -293 514 -301 0 -6 -214 102 -485 246 -450 239 -562 290
-636 290 -74 0 -112 -76 -75 -148 41 -79 218 -204 611 -432 296 -171 516 -303
511 -307 -11 -12 -406 168 -826 376 -157 78 -309 149 -338 157 -48 14 -55 14
-78 -1 -37 -24 -49 -63 -30 -102 19 -40 57 -66 469 -312 185 -111 337 -205
337 -208 0 -3 -10 1 -22 9 -55 36 -343 181 -442 222 -243 104 -360 112 -425
30 -24 -31 -28 -96 -7 -133 13 -23 11 -27 -25 -61 -52 -49 -54 -96 -6 -166 63
-94 208 -190 782 -518 374 -215 583 -344 535 -330 -56 15 -355 172 -680 358
-460 263 -568 313 -643 299 -42 -8 -80 -60 -73 -97 13 -64 105 -133 688 -512
626 -409 850 -563 662 -459 -103 57 -310 189 -578 368 -428 285 -581 367 -688
367 -41 0 -85 -26 -103 -60 -40 -78 -2 -152 135 -263 142 -115 269 -194 1120
-697 124 -73 275 -166 337 -207 156 -102 163 -118 25 -59 -159 68 -355 186
-857 516 -492 323 -575 370 -658 370 -34 0 -49 -6 -71 -28 -100 -105 21 -256
377 -472 48 -29 86 -54 84 -56 -1 -1 -34 7 -72 18 -91 26 -218 29 -261 5 -51
-27 -84 -73 -84 -117 0 -75 121 -202 383 -399 60 -44 107 -81 104 -81 -2 0
-31 12 -63 27 -80 36 -185 43 -232 14 -38 -24 -55 -63 -47 -103 9 -38 81 -99
216 -183 l111 -69 -44 -22 c-52 -27 -108 -86 -108 -115 0 -80 102 -161 765
-601 248 -165 452 -302 455 -305 6 -7 8 -8 -139 79 -141 84 -373 200 -458 228
-137 44 -233 12 -233 -79 0 -77 73 -127 773 -527 530 -304 786 -458 1022 -615
215 -143 285 -196 368 -277 75 -72 92 -103 78 -144 -21 -60 35 -114 95 -92 63
22 79 119 35 203 -11 23 -19 41 -16 41 2 0 88 -55 192 -123 408 -267 522 -322
570 -275 15 16 21 14 82 -16 170 -85 291 -93 366 -25 20 18 23 18 115 -13 179
-58 335 -50 423 23 79 65 84 121 17 211 -149 198 -601 512 -2355 1633 -1567
1001 -2080 1350 -2269 1544 -61 62 -50 71 55 47 227 -51 633 -278 1564 -873
378 -242 440 -272 489 -239 101 65 60 204 -99 338 -77 66 -294 212 -450 304
l-100 59 50 5 c80 9 122 41 132 103 11 68 -52 135 -247 264 -58 38 -157 100
-220 138 -130 77 -161 100 -81 60 160 -80 269 -90 331 -30 91 87 22 162 -433
466 -100 67 -186 126 -192 131 -5 6 31 -10 80 -35 280 -139 429 -162 489 -75
37 53 4 143 -74 198 l-32 22 39 18 c62 27 79 86 43 145 -41 66 -138 129 -540
348 -463 252 -674 380 -770 467 l-45 41 41 -5 c99 -14 390 -155 869 -422 294
-165 392 -213 428 -214 10 0 32 13 48 29 40 41 41 102 1 157 -38 52 -127 132
-223 201 -43 31 -78 58 -76 59 2 2 45 -11 97 -28 75 -25 113 -32 178 -32 82
-1 84 0 113 32 87 97 2 179 -471 453 -107 62 -199 115 -203 119 -4 4 122 -58
280 -137 362 -180 436 -201 493 -141 86 92 -10 218 -299 393 -52 31 -230 132
-395 224 -453 253 -485 274 -308 207 137 -53 278 -115 642 -286 184 -86 361
-167 393 -179 75 -27 141 -28 165 -1 41 48 34 93 -22 157 -27 31 -34 44 -21
38 11 -4 50 -10 86 -13 58 -4 69 -1 92 19 15 13 30 38 33 55 12 63 -37 99
-491 356 -339 192 -612 363 -646 404 -23 28 160 -64 686 -346 122 -65 328
-157 413 -184 95 -30 187 -34 232 -11 35 18 60 62 60 105 0 29 1 30 48 30 72
0 121 39 122 97 0 60 -28 81 -645 480 -181 118 -334 219 -340 225 -20 22 128
-70 470 -292 386 -251 522 -320 631 -320 51 0 59 3 91 35 34 34 35 38 31 90
-6 77 -54 131 -208 237 -14 10 29 -7 95 -36 153 -68 224 -94 302 -112 104 -24
173 7 173 78 0 55 -71 112 -455 366 -340 225 -445 298 -355 245 19 -12 130
-77 245 -146 629 -373 800 -447 905 -392 36 18 50 43 50 86 0 43 -31 90 -93
140 -74 61 -78 65 -27 37 279 -157 392 -199 451 -168 10 6 26 25 35 42 21 41
13 92 -24 137 -29 36 -29 36 122 -40 203 -101 301 -133 396 -127 67 3 75 6
101 36 88 98 -7 186 -566 529 -99 61 -281 172 -405 248 -237 146 -540 342
-540 350 0 24 507 -271 1185 -689 590 -362 857 -521 1000 -593 119 -59 155
-85 425 -302 162 -130 396 -317 520 -414 124 -98 269 -215 322 -260 53 -46
154 -122 224 -170 94 -64 123 -88 110 -93 -22 -9 -46 -56 -46 -92 0 -103 219
-268 1060 -797 359 -226 560 -355 560 -361 0 -7 -169 88 -450 254 -428 254
-584 332 -718 363 -105 24 -202 -25 -202 -101 0 -33 6 -44 44 -77 24 -21 135
-92 247 -157 760 -444 1092 -655 1189 -760 l25 -27 -27 10 c-86 33 -299 160
-718 431 -483 312 -569 360 -641 360 -72 0 -114 -93 -75 -168 19 -36 96 -108
171 -159 88 -59 281 -169 605 -343 157 -84 344 -188 415 -231 146 -87 255
-165 215 -154 -52 14 -293 138 -535 276 -550 312 -721 382 -813 335 -32 -16
-62 -61 -62 -91 0 -33 41 -94 97 -145 32 -30 49 -50 38 -46 -11 5 -39 11 -63
13 -35 5 -47 2 -67 -17 -14 -13 -27 -38 -31 -56 -25 -132 132 -257 833 -665
161 -95 292 -174 289 -176 -6 -7 -232 90 -445 191 -727 345 -695 334 -753 276
-27 -28 -30 -36 -25 -76 3 -27 13 -55 26 -68 27 -29 27 -36 -5 -36 -39 0 -94
-59 -94 -102 0 -92 80 -149 715 -508 188 -106 435 -257 435 -265 0 -12 -113
42 -556 266 -464 235 -608 299 -669 299 -16 0 -38 -12 -56 -29 -57 -57 -32
-115 91 -212 44 -34 80 -63 80 -64 0 -1 -39 17 -88 41 -48 24 -105 46 -128 49
-34 6 -45 3 -72 -20 -25 -21 -32 -35 -32 -62 0 -64 28 -85 460 -328 387 -219
620 -365 715 -450 l40 -36 -40 6 c-86 14 -287 110 -757 362 -347 186 -470 243
-545 250 -48 5 -54 3 -82 -25 -88 -87 -10 -162 529 -502 309 -195 293 -189
-160 68 -418 236 -499 273 -550 252 -42 -17 -65 -72 -51 -120 14 -46 98 -127
206 -200 44 -29 84 -56 88 -60 5 -4 -76 35 -180 87 -158 79 -198 95 -248 100
-52 4 -63 2 -82 -16 -51 -48 -38 -108 36 -170 25 -21 96 -71 156 -111 61 -40
115 -77 120 -82 6 -6 -53 21 -130 60 -326 162 -455 188 -500 101 -21 -40 -19
-54 16 -94 35 -39 105 -83 404 -250 468 -262 892 -531 856 -543 -29 -10 -398
194 -936 518 -498 300 -542 318 -585 248 -24 -40 -25 -79 -4 -120 12 -24 13
-30 3 -25 -191 85 -281 102 -335 61 -70 -51 -52 -115 55 -194 39 -29 71 -54
71 -55 0 -1 -37 17 -82 40 -213 110 -409 173 -497 160 -57 -8 -104 -36 -119
-70 -42 -92 1 -126 550 -428 471 -261 735 -420 885 -535 298 -228 36 -114
-397 173 -102 68 -243 158 -315 200 -71 43 -265 166 -430 275 -462 303 -561
360 -630 360 -34 0 -75 -36 -75 -66 0 -20 -2 -19 -77 30 -167 107 -348 186
-428 186 -49 0 -97 -22 -124 -56 -19 -24 -22 -38 -19 -80 13 -159 230 -314
1398 -999 436 -256 650 -397 650 -430 0 -29 47 -65 83 -65 58 0 91 64 62 119
l-15 30 63 -28 c82 -37 151 -53 193 -45 49 9 92 53 100 102 l6 40 40 -14 c49
-17 137 -18 158 -1 51 40 65 117 33 185 -29 63 -177 200 -323 298 -175 118
-331 210 -735 434 -181 100 -339 189 -350 196 -39 27 -1 13 124 -46 236 -113
386 -200 1141 -660 253 -154 372 -215 438 -226 37 -6 44 -3 72 24 21 22 30 40
30 64 0 78 -87 153 -455 396 -137 91 -254 170 -260 175 -5 6 1 4 15 -5 576
-351 708 -427 805 -463 81 -31 107 -31 140 -2 38 32 43 86 14 133 -21 35 -21
37 -3 30 51 -22 131 -37 160 -31 37 6 83 55 85 88 4 79 -25 132 -120 219 l-70
63 147 -73 c169 -84 220 -97 257 -62 32 30 40 71 21 108 -20 39 -105 115 -202
181 -43 30 -83 58 -89 63 -5 5 60 -25 145 -66 222 -108 309 -126 358 -73 50
55 35 113 -46 188 -31 29 -48 49 -37 45 86 -35 137 -48 183 -50 49 -1 56 2 83
32 72 80 29 129 -323 358 -108 71 -205 135 -215 142 -10 7 34 -13 97 -46 291
-148 459 -212 558 -212 69 0 99 14 129 59 28 41 29 75 4 124 l-19 37 54 0 c60
0 88 19 100 65 16 64 -23 96 -426 357 -162 104 -299 195 -305 200 -5 5 121
-55 280 -134 462 -229 583 -256 631 -142 16 39 10 76 -18 117 l-19 27 33 0
c40 0 73 21 93 60 19 37 19 64 -1 106 -36 75 -172 180 -395 305 -60 34 -109
63 -109 65 0 2 37 -13 83 -33 45 -20 141 -57 212 -82 118 -41 139 -46 222 -46
88 0 93 1 122 29 24 23 31 38 31 67 0 69 -49 104 -530 384 -413 241 -656 392
-520 325 25 -13 209 -115 410 -228 496 -280 584 -324 635 -320 34 3 43 8 59
39 49 91 -8 137 -629 514 -289 175 -595 371 -595 380 0 14 167 -75 535 -283
421 -238 582 -308 682 -300 118 10 157 122 77 217 l-26 31 25 9 c39 15 77 68
77 107 0 95 -109 211 -355 379 -134 91 -135 93 -25 41 178 -83 276 -103 344
-71 46 22 72 70 62 111 -16 64 -147 157 -761 544 -552 348 -866 557 -970 645
-30 25 -30 25 -4 16 59 -21 196 -96 302 -164 62 -40 163 -103 224 -140 62 -38
276 -177 475 -310 392 -262 524 -337 607 -345 47 -4 55 -2 82 24 23 22 29 36
29 71 0 37 -6 50 -42 90 -24 25 -69 65 -100 89 l-57 42 54 27 c62 30 114 89
122 139 8 48 -12 98 -66 170 l-47 62 19 38 c17 32 18 43 8 76 -51 171 -413
427 -1913 1350 l-630 388 -276 234 c-649 549 -998 823 -1312 1033 -79 52 -139
95 -135 95 15 0 252 -128 371 -201 375 -229 742 -490 1889 -1345 641 -478 836
-619 1098 -792 282 -186 481 -282 585 -282 41 0 93 32 114 71 62 113 -79 285
-468 570 l-128 94 46 6 c95 14 148 65 148 141 0 59 -41 120 -128 194 -88 73
-337 238 -539 357 l-163 94 51 5 c58 6 94 34 103 79 16 83 -71 155 -529 439
-126 78 -250 157 -274 176 -24 19 -50 34 -57 34 -20 0 -64 -22 -64 -32 0 -18
-25 -3 -192 116 -294 211 -468 306 -585 322 -104 13 -181 -54 -171 -149 11
-95 127 -209 388 -381 197 -130 325 -207 850 -506 495 -283 669 -384 837 -491
126 -80 264 -181 296 -217 67 -74 -111 -41 -326 61 -262 124 -716 415 -1307
837 -113 80 -351 252 -530 380 -693 498 -900 621 -994 590 -45 -15 -66 -44
-66 -92 l0 -37 -112 54 c-159 76 -257 107 -353 112 -66 4 -87 1 -118 -15z
m-120 -148 c15 -4 31 -25 48 -63 20 -42 55 -84 143 -171 225 -222 625 -501
1513 -1057 207 -129 399 -255 425 -279 36 -33 -43 11 -306 169 -1343 808
-1970 1245 -1970 1373 0 12 6 25 13 27 17 8 108 8 134 1z m468 -242 c154 -101
290 -200 523 -382 283 -220 281 -220 -67 14 -268 179 -532 372 -616 451 l-50
47 40 -23 c22 -12 98 -60 170 -107z m-952 54 c133 -76 432 -295 752 -549 106
-85 142 -117 115 -101 -51 28 -357 221 -475 299 -244 161 -446 321 -476 377
-14 27 -1 22 84 -26z m2295 9 c137 -65 291 -169 717 -483 189 -140 259 -194
230 -180 -32 17 -256 146 -415 241 -257 153 -483 304 -562 377 -99 90 -90 103
30 45z m-2790 -547 c155 -94 282 -172 282 -175 0 -14 -448 238 -592 334 -219
144 -60 63 310 -159z m2248 -514 c155 -95 585 -355 955 -578 665 -400 676
-407 844 -547 543 -454 916 -726 1172 -856 113 -57 139 -66 301 -99 22 -4 112
-109 112 -131 0 -24 -43 -52 -95 -63 -38 -8 -71 -8 -121 0 -73 12 -47 -2 -784
408 -460 255 -635 369 -995 646 -89 69 -130 120 -120 151 18 55 17 64 -8 89
-37 37 -78 35 -111 -5 -19 -22 -30 -28 -39 -21 -6 5 -88 69 -182 142 -426 335
-611 488 -625 522 -11 25 -45 53 -140 115 -98 65 -607 464 -739 581 -14 12 46
-23 134 -79 88 -56 287 -180 441 -275z m1394 -69 c790 -486 1241 -786 1508
-1005 108 -88 204 -191 184 -198 -43 -14 -322 149 -661 385 -305 214 -1431
1047 -1431 1060 0 3 10 -1 23 -9 12 -8 182 -113 377 -233z m-4170 -353 c124
-70 251 -152 235 -152 -25 1 -435 242 -435 256 0 6 68 -29 200 -104z m4830
-630 c546 -342 1033 -666 1057 -705 4 -7 -15 5 -42 26 -152 115 -770 515
-1218 788 -76 46 -153 97 -170 112 -45 40 -41 38 373 -221z m1095 -732 c10
-11 16 -20 13 -20 -3 0 -13 9 -23 20 -10 11 -16 20 -13 20 3 0 13 -9 23 -20z
m46 -37 c13 -16 12 -17 -3 -4 -10 7 -18 15 -18 17 0 8 8 3 21 -13z m-8031
-434 c52 -27 186 -111 298 -185 193 -130 251 -173 160 -120 -218 125 -357 208
-433 259 -167 111 -175 126 -25 46z m-130 -709 c75 -38 216 -127 515 -325 279
-184 370 -248 285 -198 -474 279 -703 423 -814 512 -45 36 -41 39 14 11z m815
-120 c3 -6 -1 -7 -9 -4 -18 7 -21 14 -7 14 6 0 13 -4 16 -10z m-632 -409 c37
-24 67 -45 67 -48 0 -3 -10 1 -22 9 -13 8 -53 34 -90 57 -38 24 -68 45 -68 48
0 3 10 -1 23 -9 12 -8 52 -34 90 -57z m1492 -1029 c121 -76 245 -160 245 -168
0 -2 -57 33 -127 78 -71 45 -163 103 -205 131 -43 27 -78 51 -78 53 0 7 35
-13 165 -94z m-1212 -248 c236 -61 650 -351 1375 -963 172 -145 217 -187 155
-143 -16 11 -264 173 -553 362 -685 447 -1099 731 -1100 753 0 12 58 8 123 -9z
m757 -129 c102 -67 285 -186 408 -264 122 -79 222 -145 222 -148 0 -3 -10 1
-22 9 -13 8 -113 66 -223 128 -110 62 -225 128 -256 146 -51 29 -291 213 -329
251 -21 22 -14 18 200 -122z m1040 -825 c727 -428 1305 -828 1561 -1080 74
-73 169 -193 169 -212 0 -36 -488 281 -870 565 -282 210 -1080 840 -1080 853
0 2 10 -2 23 -10 12 -7 101 -60 197 -116z m1225 50 c156 -76 398 -237 853
-568 235 -171 299 -222 220 -174 -18 11 -116 68 -218 127 -542 316 -863 527
-960 630 l-35 38 30 -7 c17 -4 66 -24 110 -46z m2145 -376 c0 -2 -9 0 -20 6
-11 6 -20 13 -20 16 0 2 9 0 20 -6 11 -6 20 -13 20 -16z m-1036 -159 c92 -53
257 -154 365 -224 108 -70 250 -160 316 -201 66 -40 148 -95 182 -122 67 -53
127 -117 119 -126 -13 -12 -208 97 -394 221 -174 117 -741 522 -767 550 -13
13 -18 16 179 -98z m-569 -513 c219 -154 380 -278 460 -355 l70 -68 -30 -16
c-54 -30 -196 -15 -315 33 -34 14 -38 20 -44 59 -14 106 -101 230 -289 411
-149 144 -152 145 148 -64z m-360 -287 c61 -38 146 -88 190 -112 110 -59 68
-54 -49 6 -104 53 -268 160 -331 217 l-40 36 60 -40 c33 -21 110 -70 170 -107z"/>
</g>
</svg>
