<svg width="142" height="81" viewBox="0 0 142 81" fill="none" xmlns="http://www.w3.org/2000/svg">
<g filter="url(#filter0_d_23_31)">
<path d="M63.1197 51.513C60.3959 51.9428 57.7452 52.3388 55.1204 52.8938C53.6546 53.2035 52.2353 53.7248 50.7317 53.8658C50.2687 53.9093 49.8191 53.9775 49.3613 53.826C48.5085 53.544 48.192 52.7333 48.6365 51.9555C48.8598 51.5655 49.1734 51.2723 49.5262 51.0083C51.4957 49.5345 53.7322 48.5948 55.9739 47.6602C57.2475 47.1292 58.5025 46.5525 59.7154 45.8258C58.4774 46.176 57.2445 46.5518 55.999 46.872C53.6553 47.4743 51.4351 48.4868 49.0595 48.9885C48.3717 49.134 47.6928 49.206 46.9976 49.1918C45.69 49.1655 45.0761 48.2123 45.5827 46.983C45.7151 46.6628 45.8867 46.359 46.1101 45.906C40.9396 47.949 36.3868 45.8408 31.7614 44.0288C31.4515 44.6213 31.4767 45.2363 31.5003 45.8378C31.5565 47.2313 31.3591 48.5858 30.9442 49.9088C30.8539 50.1975 30.7785 50.5913 30.3429 50.532C29.9731 50.4818 29.9613 50.118 29.9051 49.848C29.5308 48.06 29.4169 46.2518 29.5715 44.4315C29.6536 43.4693 29.8932 42.495 28.8009 41.8875C28.5553 41.751 28.4385 41.4195 28.5827 41.1068C28.7143 40.8225 28.985 40.7595 29.2483 40.824C29.8799 40.9785 29.9487 40.6275 30.0108 40.1123C30.1121 39.2775 30.4405 38.4788 30.4205 37.6103C30.2978 37.533 30.2231 37.65 30.1639 37.7288C28.8201 39.4973 27.2189 41.0265 25.6362 42.5557C23.7783 44.352 21.7955 46.0163 19.2906 46.8713C17.4616 47.4953 16.0393 46.7963 15.4151 44.9108C14.8264 43.1318 15.038 41.328 15.2369 39.5198C15.5261 36.8955 15.8981 34.2878 17.1724 31.9335C18.7773 28.9695 20.539 26.1218 23.4344 24.231C24.1163 23.7863 24.8419 23.4608 25.6672 23.3325C25.9904 23.913 25.5215 24.213 25.2612 24.4695C23.6608 26.0453 22.2526 27.7778 20.9546 29.6138C19.3542 31.8795 18.2869 34.35 17.7345 37.098C17.4268 38.6295 17.3203 40.1693 17.1221 41.7045C17.02 42.4995 17.0962 43.2893 17.2885 44.0588C17.4268 44.6123 17.747 44.8935 18.3794 44.7068C19.599 44.3468 20.6514 43.6733 21.5988 42.8678C24.2332 40.6268 26.7877 38.2875 28.9325 35.544C30.1595 33.9743 31.3169 32.3415 32.2458 30.3548C31.7792 30.5633 31.4441 30.657 31.1727 30.8453C29.7823 31.8105 28.2595 32.493 26.6879 33.081C26.3758 33.198 26.0008 33.5483 25.7723 33.1433C25.5208 32.6985 26.0148 32.4788 26.3048 32.2808C27.9326 31.17 29.5123 29.9648 31.2326 29.0243C32.5439 28.3073 33.2391 27.33 33.6118 25.9283C33.9632 24.6068 34.4468 23.319 34.9209 22.035C35.0866 21.5873 35.3011 21.015 35.9275 21.1215C36.5975 21.2348 36.6974 21.789 36.7085 22.398C36.7233 23.169 36.6175 23.9175 36.4482 24.6623C36.3712 25.0028 36.2721 25.341 36.4918 25.7588C37.633 25.2113 38.7468 24.6098 39.9087 24.132C42.5904 23.0295 45.335 22.3058 48.2364 23.196C49.5639 23.6033 50.1489 24.8903 49.6401 26.187C49.0484 27.6938 47.7874 28.6238 46.6914 29.6933C46.4665 29.913 46.2033 30.0923 45.8948 30.3405C47.2039 30.2655 48.3754 29.8185 49.6187 29.8695C51.617 29.9505 53.4031 30.3975 54.3786 32.418C54.5835 32.8425 54.8586 32.7623 55.2351 32.667C58.8324 31.7595 62.1805 30.1868 65.5729 28.731C65.945 28.5713 66.3525 28.2713 66.6261 28.7858C66.8672 29.2388 66.5004 29.5403 66.1861 29.814C65.9501 30.0195 65.6417 30.147 65.4554 30.5423C68.8301 29.442 72.1893 28.5428 75.564 27.7298C78.7849 26.9535 82.0634 26.4758 85.3686 26.142C88.6317 25.8128 91.891 25.8518 95.1555 25.8188C96.1799 25.8083 97.1968 25.9283 98.1501 26.2305C99.8793 26.7788 100.213 27.9413 99.6862 30.0038C99.2188 31.8345 97.7552 32.8493 96.208 33.7125C92.9886 35.508 89.5488 36.7808 86.1178 38.0715C81.8837 39.6645 77.6392 41.2268 73.4059 42.822C70.8151 43.7985 68.2059 44.7353 65.6617 45.8273C62.3484 47.25 59.0173 48.6413 55.8067 50.3018C55.7639 50.3243 55.7394 50.385 55.7136 50.4195C58.0277 49.9943 60.3382 49.5007 62.6701 49.1602C65.0367 48.8145 67.4241 48.6128 69.8041 48.3638C70.9231 48.2467 72.0421 48.108 73.1552 47.973C77.1474 47.487 81.1515 47.277 85.1652 47.178C85.7133 47.1645 85.9263 46.8105 86.14 46.4408C87.5326 44.0333 89.088 41.7548 91.1174 39.8445C91.3792 39.5978 91.5841 39.2265 92.2756 39.354C90.63 41.886 89.0022 44.3288 87.9231 47.0783C88.0045 47.154 88.0666 47.2613 88.1273 47.2605C89.2315 47.2463 90.3098 47.436 91.3829 47.6693C91.7742 47.754 91.9524 47.6423 92.1721 47.2485C94.2311 43.56 97.3181 41.1375 101.319 39.9998C102.449 39.6788 103.697 39.444 104.94 40.0373C104.65 40.7415 104.005 40.8795 103.438 41.0768C101.202 41.8553 99.0065 42.7208 97.0393 44.0835C95.7834 44.9535 94.6881 45.972 94.092 47.4435C93.4612 48.9998 94.0935 50.4473 95.6725 50.9738C96.3832 51.2108 97.1058 51.357 97.8728 51.3825C101.437 51.501 104.965 51.1823 108.494 50.718C110.039 50.5148 111.583 50.3295 113.089 49.935C114.369 49.5998 115.649 49.2015 116.671 48.2828C118.021 47.07 117.924 45.7875 116.469 44.7375C115.137 43.776 113.548 43.5248 112.047 43.0373C110.844 42.6465 109.647 42.2085 108.371 42.0863C108.154 42.0653 107.95 41.9018 107.737 41.8133C107.449 41.6933 107.379 41.46 107.389 41.1735C107.399 40.8675 107.546 40.68 107.838 40.6118C108.175 40.533 108.511 40.4085 108.852 40.3905C111.493 40.248 114.169 39.831 116.623 41.3183C117.654 41.9423 118.552 42.7133 119.228 43.7235C120.275 45.288 120.255 47.1525 119.213 48.7508C118.073 50.499 116.382 51.4755 114.509 52.1648C110.049 53.8073 105.389 54.4342 100.694 54.729C98.3616 54.8753 96.0201 54.6315 93.9515 53.277C93.0522 52.6883 92.3362 51.9525 91.9724 50.9175C91.7816 50.3753 91.4769 50.175 90.8756 50.1893C89.6937 50.2178 88.5059 50.1548 87.3256 50.0655C86.654 50.0153 86.2665 50.247 85.9721 50.8635C85.3553 52.1528 84.6483 53.3963 83.8066 54.5513C83.6195 54.8078 83.4494 55.2675 83.016 55.0643C82.5885 54.864 82.84 54.4613 82.8762 54.126C82.9975 52.9973 83.5766 52.0313 83.9442 50.991C84.2245 50.199 84.1712 50.0415 83.3259 50.0843C80.0939 50.2493 76.8627 50.4218 73.6344 50.64C70.9275 50.823 68.2229 51.0518 65.5212 51.306C64.7498 51.381 63.9777 51.4845 63.1197 51.513ZM55.6241 37.7888C55.4569 38.1083 55.1263 38.376 55.3127 38.8628C56.6358 38.961 57.956 38.7413 59.2599 38.5928C61.6029 38.3265 63.9222 37.854 66.2593 37.53C67.416 37.3695 68.5631 37.611 69.6954 37.7595C69.6828 38.2065 69.441 38.2695 69.2206 38.3175C68.4329 38.487 67.643 38.6505 66.8502 38.7953C64.897 39.153 62.9393 39.4853 60.9883 39.8535C59.1452 40.2015 57.4072 40.9328 55.6041 41.4218C53.764 41.9213 51.9291 42.3428 50.6726 44.0078C50.2577 44.5575 49.632 44.937 49.1549 45.4448C48.7578 45.8678 48.3052 46.272 48.0929 46.8525C48.3939 47.0048 48.5995 46.8675 48.8095 46.7835C50.5757 46.0793 52.3159 45.2985 54.1109 44.6842C57.135 43.6493 60.1873 42.696 63.2418 41.7533C66.4664 40.758 69.7464 39.9735 73.0982 39.606C75.6875 39.3218 78.1703 38.7248 80.6072 37.7888C83.8902 36.528 87.1784 35.2823 90.4133 33.9008C92.692 32.928 95.0209 32.0355 96.9594 30.3945C97.4756 29.9573 97.9534 29.4173 97.7751 28.77C97.5858 28.0808 96.8314 28.2555 96.2738 28.242C92.5988 28.1535 88.9556 28.5608 85.3021 28.896C80.8697 29.3033 76.5365 30.2273 72.2018 31.1715C69.9964 31.6523 67.7303 32.3453 65.5382 31.8338C64.1759 31.5158 63.4437 32.0873 62.5318 32.6483C60.8056 33.7103 58.8938 34.2285 56.9524 34.671C56.6469 34.7408 56.3119 34.776 56.3148 35.235C56.3193 36.1013 56.0279 36.8963 55.6241 37.7888ZM47.3001 40.446C48.3636 40.0883 49.4234 39.7298 50.532 39.516C52.3307 39.1703 53.1642 37.9005 52.878 36.1058C52.7678 35.4158 52.54 34.9905 51.7183 35.0783C50.958 35.16 50.1822 35.0865 49.5159 34.5473C49.9958 33.759 50.9972 34.0433 51.5164 33.4313C51.2309 33.1463 50.9329 33.0225 50.5683 32.9715C47.7675 32.5793 44.977 33.0758 42.1814 33.0728C41.5454 33.072 40.8908 33.297 40.2629 33.5498C38.076 34.4303 35.9341 35.4855 33.5579 35.7443C32.8597 35.82 32.5979 36.1665 32.5054 36.7778C32.3176 38.019 32.1911 39.273 31.9293 40.4977C31.7666 41.2568 31.9263 41.622 32.6977 41.6813C32.8663 41.694 33.032 41.7638 33.1955 41.8178C35.4615 42.5685 37.6958 43.422 40.0876 43.725C42.4025 44.019 44.5843 43.6163 46.7639 42.69C46.6463 42.5543 46.6041 42.4763 46.539 42.4335C45.4563 41.7233 45.4711 41.316 46.613 40.7227C46.792 40.6313 46.9887 40.5735 47.3001 40.446ZM40.6527 30.732C43.3226 29.5905 45.7314 28.0943 47.57 25.6958C46.7816 25.2863 46.6174 25.2795 45.8682 25.3238C42.3537 25.5315 39.1306 26.7195 36.0266 28.3125C35.6635 28.4993 35.409 28.755 35.2256 29.1698C34.6125 30.5528 33.9232 31.9005 33.2635 33.2625C33.1807 33.4328 32.9876 33.5888 33.2058 33.8183C35.5814 32.646 38.113 31.8585 40.6527 30.732Z" fill="black"/>
<path d="M107.318 44.8837C107.847 43.947 108.725 44.1682 109.472 44.1997C110.346 44.2365 111.001 44.8065 111.259 45.6442C111.523 46.5015 111.217 47.2477 110.491 47.805C109.754 48.3697 108.886 48.642 108.018 48.7942C103.917 49.5112 99.8038 49.503 95.702 48.7852C95.1658 48.6915 94.5927 48.5797 94.0757 48.2325C94.339 47.7525 94.7472 47.862 95.0934 47.8522C96.9127 47.8012 98.7291 48.0285 100.552 47.8927C103.085 47.7045 105.606 47.4435 108.096 46.9275C108.432 46.8577 108.743 46.6942 109.03 46.431C108.952 45.8175 108.444 45.6735 107.998 45.5273C107.671 45.4193 107.4 45.321 107.318 44.8837Z" fill="black"/>
</g>
<defs>
<filter id="filter0_d_23_31" x="-4" y="0" width="150" height="89" filterUnits="userSpaceOnUse" color-interpolation-filters="sRGB">
<feFlood flood-opacity="0" result="BackgroundImageFix"/>
<feColorMatrix in="SourceAlpha" type="matrix" values="0 0 0 0 0 0 0 0 0 0 0 0 0 0 0 0 0 0 127 0" result="hardAlpha"/>
<feOffset dy="4"/>
<feGaussianBlur stdDeviation="2"/>
<feComposite in2="hardAlpha" operator="out"/>
<feColorMatrix type="matrix" values="0 0 0 0 0 0 0 0 0 0 0 0 0 0 0 0 0 0 0.25 0"/>
<feBlend mode="normal" in2="BackgroundImageFix" result="effect1_dropShadow_23_31"/>
<feBlend mode="normal" in="SourceGraphic" in2="effect1_dropShadow_23_31" result="shape"/>
</filter>
</defs>
</svg>
